<svg xmlns="http://www.w3.org/2000/svg" viewBox="0 0 1600 1200" width="1600" height="1200" preserveAspectRatio="xMidYMid meet" style="width: 100%; height: 100%; transform: translate3d(0px, 0px, 0px);"><defs><clipPath id="animationMask_kIgGdmtzmd"><rect width="1600" height="1200" x="0" y="0"></rect></clipPath><clipPath id="cp_dPcRGz82"><path d="M0,0 L1600,0 L1600,1200 L0,1200z"></path></clipPath><clipPath id="cp_m2kSv8JG"><path d="M0,0 L1600,0 L1600,1200 L0,1200z"></path></clipPath><clipPath id="qyw79WPHMu"><path fill="#ffffff" clip-rule="nonzero" d=" M1192,239 C1192,239 1080,239 1080,239 C1080,239 1080,380 1080,380 C1080,380 1192,380 1192,380 C1192,380 1192,239 1192,239" fill-opacity="1"></path></clipPath><clipPath id="cp_KqIdtOlJ"><path d="M0,0 L1600,0 L1600,1200 L0,1200z"></path></clipPath><clipPath id="lexAr8fHc3"><path fill="#ffffff" clip-rule="nonzero" d=" M1303,650 C1303,650 1060,650 1060,650 C1060,650 1060,909 1060,909 C1060,909 1303,909 1303,909 C1303,909 1303,650 1303,650" fill-opacity="1"></path></clipPath><clipPath id="cp_ewgHCLiT"><path d="M0,0 L250,0 L250,250 L0,250z"></path></clipPath><mask id="ly_0a2lppBFB2" mask-type="alpha"><g transform="matrix(1,0,0,1,125,125)" opacity="1" style="display: block;"><g opacity="1" transform="matrix(1,0,0,1,0,0)"><path fill="rgb(251,173,131)" fill-opacity="1" d=" M30.25,-52 C18.273000717163086,-69.8270034790039 -54,-82.5 -53.75,-23 C-53.49399948120117,38.020999908447266 -28.5,60.25 -28.5,60.25 C-28.5,60.25 -12.25,84 19.75,80.75 C31.041000366210938,79.60299682617188 40,74 45.5,41.25 C51,8.5 41,-36 30.25,-52z"></path></g></g></mask><mask id="ly_JBQv2t0HEv" mask-type="alpha"><g transform="matrix(1,0,0,1,125,125)" opacity="1" style="display: block;"><g opacity="1" transform="matrix(1,0,0,1,0,0)"><path fill="rgb(251,173,131)" fill-opacity="1" d=" M30.25,-52 C18.273000717163086,-69.8270034790039 -55.584999084472656,-85.03099822998047 -53,-23 C-50.5,37 -31.25,59 -31.25,59 C-31.25,59 -12.25,84 19.75,80.75 C31.041000366210938,79.60299682617188 40,74 45.5,41.25 C51,8.5 41,-36 30.25,-52z"></path></g></g></mask><mask id="ly_QOwnckbEUr" mask-type="alpha"><g transform="matrix(-1.25,0,0,1.25,253.125,574.875)" opacity="1" style="display: block;"><g opacity="1" transform="matrix(1,0,0,1,0,0)"><path fill="rgb(26,34,73)" fill-opacity="1" d=" M65.96099853515625,-330.4939880371094 C65.96099853515625,-330.4939880371094 66.197998046875,-295.625 69.79199981689453,-290.0589904785156 C73.38700103759766,-284.49200439453125 88.96399688720703,-283.28399658203125 94.36199951171875,-285.6059875488281 C99.76000213623047,-287.927001953125 108.53299713134766,-296.29998779296875 110.7249984741211,-303.385009765625 C112.91899871826172,-310.4700012207031 75.14600372314453,-320.5870056152344 75.14600372314453,-320.5870056152344 C75.14600372314453,-320.5870056152344 65.96099853515625,-330.4939880371094 65.96099853515625,-330.4939880371094z"></path></g></g></mask><clipPath id="cp_Wv5zXFWk"><path d="M0,0 L1600,0 L1600,1200 L0,1200z"></path></clipPath><clipPath id="oQCyw4RTVH"><path fill="#ffffff" clip-rule="nonzero" d=" M1086,282 C1086,282 440,282 440,282 C440,282 440,758 440,758 C440,758 1086,758 1086,758 C1086,758 1086,282 1086,282" fill-opacity="1"></path></clipPath><clipPath id="cp_mQQXSrPs"><path d="M0,0 L1600,0 L1600,1200 L0,1200z"></path></clipPath><clipPath id="hWZe6GOB6c"><path fill="#ffffff" clip-rule="nonzero" d=" M487,736 C487,736 334,736 334,736 C334,736 334,909 334,909 C334,909 487,909 487,909 C487,909 487,736 487,736" fill-opacity="1"></path></clipPath><clipPath id="cp_M5LWPsiJ"><path d="M0,0 L1600,0 L1600,1200 L0,1200z"></path></clipPath><mask id="ly_xsWogNE8GI" mask-type="alpha"><g transform="matrix(1.7999999523162842,0,0,1.7999999523162842,322.5570068359375,880.2587890625)" opacity="1" style="display: block;"><path fill="rgb(255,147,152)" fill-opacity="1" d=" M-31.631999969482422,-75.08999633789062 C-46.07099914550781,-58.047000885009766 -55.52799987792969,-29.660999298095703 -55.52799987792969,2.4820001125335693 C-55.52799987792969,31.679000854492188 -47.72700119018555,57.777000427246094 -35.47600173950195,75.08999633789062 C-35.47600173950195,75.08999633789062 35.474998474121094,75.08999633789062 35.474998474121094,75.08999633789062 C47.72600173950195,57.777000427246094 55.52799987792969,31.679000854492188 55.52799987792969,2.4820001125335693 C55.52799987792969,-29.660999298095703 46.071998596191406,-58.047000885009766 31.631999969482422,-75.08999633789062 C31.631999969482422,-75.08999633789062 -31.631999969482422,-75.08999633789062 -31.631999969482422,-75.08999633789062z"></path></g></mask></defs><g clip-path="url(#animationMask_kIgGdmtzmd)"><g clip-path="url(#cp_M5LWPsiJ)" transform="matrix(0.8395000100135803,0,0,0.8395000100135803,900.0999145507812,142.54998779296875)" opacity="1" style="display: block;"><g transform="matrix(1.799898386001587,0.01912904717028141,-0.01912904717028141,1.799898386001587,348.7959899902344,493.8694152832031)" opacity="1" style="display: block;"><path fill="rgb(0,185,143)" fill-opacity="1" d=" M-24.325000762939453,140.41700744628906 C-24.325000762939453,140.41700744628906 -27.90999984741211,43.15399932861328 -39.58599853515625,5.243000030517578 C-51.262001037597656,-32.667999267578125 -35.617000579833984,-117.60099792480469 -35.617000579833984,-117.60099792480469 C-35.617000579833984,-117.60099792480469 -35.05799865722656,-51.99700164794922 -25.55900001525879,-19.702999114990234 C-16.059999465942383,12.590999603271484 0.19099999964237213,54.31800079345703 -2.9059998989105225,92.1259994506836 C-6.002999782562256,129.93299865722656 -14.029000282287598,140.50999450683594 -14.029000282287598,140.50999450683594 C-14.029000282287598,140.50999450683594 -24.325000762939453,140.41700744628906 -24.325000762939453,140.41700744628906z M-15.977999687194824,12.130999565124512 C-15.977999687194824,12.130999565124512 -40.16899871826172,4.144000053405762 -40.16899871826172,4.144000053405762 C-40.0629997253418,4.51200008392334 -39.95899963378906,4.883999824523926 -39.8489990234375,5.243000030517578 C-28.172000885009766,43.15399932861328 -24.58799934387207,140.41700744628906 -24.58799934387207,140.41700744628906 C-24.58799934387207,140.41700744628906 -14.291999816894531,140.50999450683594 -14.291999816894531,140.50999450683594 C-14.291999816894531,140.50999450683594 -6.264999866485596,129.93299865722656 -3.1679999828338623,92.1259994506836 C-1.0169999599456787,65.85900115966797 -8.204999923706055,37.702999114990234 -15.977999687194824,12.130999565124512z"></path><path fill="rgb(6,142,106)" fill-opacity="1" d=" M-15.977999687194824,12.130999565124512 C-15.977999687194824,12.130999565124512 -40.16899871826172,4.144000053405762 -40.16899871826172,4.144000053405762 C-40.0629997253418,4.51200008392334 -39.95899963378906,4.883999824523926 -39.8489990234375,5.243000030517578 C-28.172000885009766,43.15399932861328 -24.58799934387207,140.41700744628906 -24.58799934387207,140.41700744628906 C-24.58799934387207,140.41700744628906 -14.291999816894531,140.50999450683594 -14.291999816894531,140.50999450683594 C-14.291999816894531,140.50999450683594 -6.264999866485596,129.93299865722656 -3.1679999828338623,92.1259994506836 C-1.0169999599456787,65.85900115966797 -8.204999923706055,37.702999114990234 -15.977999687194824,12.130999565124512z"></path></g><g transform="matrix(1.7998443841934204,-0.023661039769649506,0.023661039769649506,1.7998443841934204,342.8123779296875,497.94970703125)" opacity="1" style="display: block;"><path fill="rgb(0,185,143)" fill-opacity="1" d=" M-4.406000137329102,140.50999450683594 C-4.406000137329102,140.50999450683594 -3.3380000591278076,107.25399780273438 -4.390999794006348,58.24700164794922 C-5.443999767303467,9.23900032043457 49.314998626708984,-35.4010009765625 94.57499694824219,-13.081999778747559 C94.57499694824219,-13.081999778747559 65.51899719238281,-12.722999572753906 44.845001220703125,5.243000030517578 C24.17099952697754,23.20800018310547 12.437000274658203,33.755001068115234 10.76099967956543,64.52200317382812 C9.085000038146973,95.28900146484375 2.9049999713897705,140.50999450683594 2.9049999713897705,140.50999450683594 C2.9049999713897705,140.50999450683594 -4.406000137329102,140.50999450683594 -4.406000137329102,140.50999450683594z M13.031000137329102,10.053000450134277 C2.0460000038146973,23.624000549316406 -4.769000053405762,40.65399932861328 -4.390999794006348,58.24700164794922 C-3.3380000591278076,107.25399780273438 -4.406000137329102,140.50999450683594 -4.406000137329102,140.50999450683594 C-4.406000137329102,140.50999450683594 2.9049999713897705,140.50999450683594 2.9049999713897705,140.50999450683594 C2.9049999713897705,140.50999450683594 9.085000038146973,95.28900146484375 10.76099967956543,64.52200317382812 C11.965999603271484,42.415000915527344 18.36199951171875,30.746000289916992 29.538000106811523,19.264999389648438 C29.538000106811523,19.264999389648438 13.031000137329102,10.053000450134277 13.031000137329102,10.053000450134277z"></path><path fill="rgb(6,142,106)" fill-opacity="1" d=" M13.031000137329102,10.053000450134277 C2.0460000038146973,23.624000549316406 -4.769000053405762,40.65399932861328 -4.390999794006348,58.24700164794922 C-3.3380000591278076,107.25399780273438 -4.406000137329102,140.50999450683594 -4.406000137329102,140.50999450683594 C-4.406000137329102,140.50999450683594 2.9049999713897705,140.50999450683594 2.9049999713897705,140.50999450683594 C2.9049999713897705,140.50999450683594 9.085000038146973,95.28900146484375 10.76099967956543,64.52200317382812 C11.965999603271484,42.415000915527344 18.36199951171875,30.746000289916992 29.538000106811523,19.264999389648438 C29.538000106811523,19.264999389648438 13.031000137329102,10.053000450134277 13.031000137329102,10.053000450134277z"></path></g><g transform="matrix(1.7998656034469604,0.02199099026620388,-0.02199099026620388,1.7998656034469604,349.2191162109375,498.6599426269531)" opacity="1" style="display: block;"><path fill="rgb(0,201,156)" fill-opacity="1" d=" M-23.216999053955078,140.50999450683594 C-23.216999053955078,140.50999450683594 -7.8429999351501465,92.00900268554688 -34.637001037597656,14.741000175476074 C-61.43199920654297,-62.5260009765625 -94.57499694824219,-80.17400360107422 -94.57499694824219,-80.17400360107422 C-94.57499694824219,-80.17400360107422 -64.69999694824219,-15.055999755859375 -52.19900131225586,35.85599899291992 C-39.69900131225586,86.76799774169922 -39.54999923706055,140.50999450683594 -39.54999923706055,140.50999450683594 C-39.54999923706055,140.50999450683594 -23.216999053955078,140.50999450683594 -23.216999053955078,140.50999450683594z M-23.215999603271484,140.50999450683594 C-23.215999603271484,140.50999450683594 -11.0600004196167,102.1520004272461 -27.211000442504883,39.31999969482422 C-27.211000442504883,39.31999969482422 -53.08100128173828,32.35599899291992 -53.08100128173828,32.35599899291992 C-52.77899932861328,33.52899932861328 -52.481998443603516,34.696998596191406 -52.198001861572266,35.85599899291992 C-39.696998596191406,86.76799774169922 -39.54800033569336,140.50999450683594 -39.54800033569336,140.50999450683594 C-39.54800033569336,140.50999450683594 -23.215999603271484,140.50999450683594 -23.215999603271484,140.50999450683594z"></path><path fill="rgb(0,185,143)" fill-opacity="1" d=" M-23.215999603271484,140.50999450683594 C-23.215999603271484,140.50999450683594 -11.0600004196167,102.1520004272461 -27.211000442504883,39.31999969482422 C-27.211000442504883,39.31999969482422 -53.08100128173828,32.35599899291992 -53.08100128173828,32.35599899291992 C-52.77899932861328,33.52899932861328 -52.481998443603516,34.696998596191406 -52.198001861572266,35.85599899291992 C-39.696998596191406,86.76799774169922 -39.54800033569336,140.50999450683594 -39.54800033569336,140.50999450683594 C-39.54800033569336,140.50999450683594 -23.215999603271484,140.50999450683594 -23.215999603271484,140.50999450683594z"></path></g><g transform="matrix(1.7997816801071167,-0.028028419241309166,0.028028419241309166,1.7997816801071167,342.218017578125,493.7273254394531)" opacity="1" style="display: block;"><path fill="rgb(0,201,156)" fill-opacity="1" d=" M2.9049999713897705,140.50999450683594 C2.9049999713897705,140.50999450683594 7.4079999923706055,111.34200286865234 6.848999977111816,68.11299896240234 C6.289999961853027,24.885000228881836 33.75600051879883,-11.322999954223633 6.892000198364258,-75.35800170898438 C-19.972000122070312,-139.39300537109375 -38.970001220703125,-137.71600341796875 -38.970001220703125,-137.71600341796875 C-38.970001220703125,-137.71600341796875 -7.119999885559082,-140.51100158691406 15.230999946594238,-100.27999877929688 C37.582000732421875,-60.04899978637695 42.202999114990234,-8.255000114440918 27.523000717163086,41.41299819946289 C12.843000411987305,91.08100128173828 13.697999954223633,140.50999450683594 13.697999954223633,140.50999450683594 C13.697999954223633,140.50999450683594 2.9049999713897705,140.50999450683594 2.9049999713897705,140.50999450683594z M6.888999938964844,71.5989990234375 C7.171999931335449,112.89900207519531 2.9119999408721924,140.50999450683594 2.9119999408721924,140.50999450683594 C2.9119999408721924,140.50999450683594 13.704999923706055,140.50999450683594 13.704999923706055,140.50999450683594 C13.704999923706055,140.50999450683594 13.239999771118164,113.55500030517578 18.908000946044922,79.4540023803711 C18.908000946044922,79.4540023803711 6.888999938964844,71.5989990234375 6.888999938964844,71.5989990234375z"></path><path fill="rgb(0,185,143)" fill-opacity="1" d=" M6.888999938964844,71.5989990234375 C7.171999931335449,112.89900207519531 2.9119999408721924,140.50999450683594 2.9119999408721924,140.50999450683594 C2.9119999408721924,140.50999450683594 13.704999923706055,140.50999450683594 13.704999923706055,140.50999450683594 C13.704999923706055,140.50999450683594 13.239999771118164,113.55500030517578 18.908000946044922,79.4540023803711 C18.908000946044922,79.4540023803711 6.888999938964844,71.5989990234375 6.888999938964844,71.5989990234375z"></path></g><g transform="matrix(1.7999591827392578,0.012117864564061165,-0.012117864564061165,1.7999591827392578,347.8290710449219,493.6145935058594)" opacity="1" style="display: block;"><path fill="rgb(0,201,156)" fill-opacity="1" d=" M-15.972999572753906,140.50999450683594 C-15.972999572753906,140.50999450683594 -7.86299991607666,93.85900115966797 -16.812999725341797,27.81999969482422 C-25.763999938964844,-38.21900177001953 59.34600067138672,-96.36799621582031 59.34600067138672,-96.36799621582031 C59.34600067138672,-96.36799621582031 14.687000274658203,-43.99700164794922 6.566999912261963,-1.5199999809265137 C-1.5529999732971191,40.957000732421875 4.919000148773193,93.4749984741211 -0.19900000095367432,119.85600280761719 C-3.3519999980926514,136.11000061035156 -3.625999927520752,140.50999450683594 -3.625999927520752,140.50999450683594 C-3.625999927520752,140.50999450683594 -15.972999572753906,140.50999450683594 -15.972999572753906,140.50999450683594z M-14.265999794006348,49.5890007019043 C-9.489999771118164,103.87799835205078 -15.855999946594238,140.50999450683594 -15.855999946594238,140.50999450683594 C-15.855999946594238,140.50999450683594 -3.507999897003174,140.50999450683594 -3.507999897003174,140.50999450683594 C-3.507999897003174,140.50999450683594 -3.234999895095825,136.11000061035156 -0.0820000022649765,119.85600280761719 C3.2290000915527344,102.79000091552734 1.6929999589920044,74.78399658203125 2.3919999599456787,45.637001037597656 C2.3919999599456787,45.637001037597656 -14.265999794006348,49.5890007019043 -14.265999794006348,49.5890007019043z"></path><path fill="rgb(0,185,143)" fill-opacity="1" d=" M-14.265999794006348,49.5890007019043 C-9.489999771118164,103.87799835205078 -15.855999946594238,140.50999450683594 -15.855999946594238,140.50999450683594 C-15.855999946594238,140.50999450683594 -3.507999897003174,140.50999450683594 -3.507999897003174,140.50999450683594 C-3.507999897003174,140.50999450683594 -3.234999895095825,136.11000061035156 -0.0820000022649765,119.85600280761719 C3.2290000915527344,102.79000091552734 1.6929999589920044,74.78399658203125 2.3919999599456787,45.637001037597656 C2.3919999599456787,45.637001037597656 -14.265999794006348,49.5890007019043 -14.265999794006348,49.5890007019043z"></path></g><g transform="matrix(1.7999999523162842,0,0,1.7999999523162842,322.5570068359375,880.2587890625)" opacity="1" style="display: block;"><path fill="rgb(255,147,152)" fill-opacity="1" d=" M-31.631999969482422,-75.08999633789062 C-46.07099914550781,-58.047000885009766 -55.52799987792969,-29.660999298095703 -55.52799987792969,2.4820001125335693 C-55.52799987792969,31.679000854492188 -47.72700119018555,57.777000427246094 -35.47600173950195,75.08999633789062 C-35.47600173950195,75.08999633789062 35.474998474121094,75.08999633789062 35.474998474121094,75.08999633789062 C47.72600173950195,57.777000427246094 55.52799987792969,31.679000854492188 55.52799987792969,2.4820001125335693 C55.52799987792969,-29.660999298095703 46.071998596191406,-58.047000885009766 31.631999969482422,-75.08999633789062 C31.631999969482422,-75.08999633789062 -31.631999969482422,-75.08999633789062 -31.631999969482422,-75.08999633789062z"></path></g><g mask="url(#ly_xsWogNE8GI)" style="display: block;"><g transform="matrix(1.1111040115356445,0,0,1.1111040115356445,816.1349487304688,571.8234252929688)" opacity="1"><g opacity="1" transform="matrix(1,0,0,1,0,0)"><path fill="rgb(244,130,139)" fill-opacity="1" d=" M-600.5239868164062,109.947998046875 C-600.5239868164062,109.947998046875 -600.5239868164062,438.2200012207031 -600.5239868164062,438.2200012207031 C-600.5239868164062,438.2200012207031 -421.46600341796875,438.2200012207031 -421.46600341796875,438.2200012207031 C-421.46600341796875,438.2200012207031 -421.46600341796875,111.51799774169922 -421.46600341796875,111.51799774169922 C-421.46600341796875,111.51799774169922 -600.5239868164062,109.947998046875 -600.5239868164062,109.947998046875z"></path><path stroke-linecap="butt" stroke-linejoin="miter" fill-opacity="0" stroke-miterlimit="4" stroke="rgb(25,25,43)" stroke-opacity="1" stroke-width="8" d="M0 0"></path></g></g></g></g><g clip-path="url(#cp_mQQXSrPs)" transform="matrix(1.149999976158142,0,0,1.149999976158142,-125.70001220703125,-38)" opacity="1" style="display: block;"><g clip-path="url(#hWZe6GOB6c)"><g transform="matrix(1,0,0,1,800,600)" opacity="1" style="display: block;"><g opacity="1" transform="matrix(1,0,0,1,0,0)"><path fill="rgb(25,25,43)" fill-opacity="1" d=" M-361.5870056152344,167.1020050048828 C-361.5870056152344,167.1020050048828 -346.9909973144531,167.1020050048828 -346.9909973144531,167.1020050048828 C-339.552001953125,167.0989990234375 -332.7760009765625,170.12899780273438 -327.9049987792969,175.0070037841797 C-323.0270080566406,179.8769989013672 -319.9960021972656,186.6540069580078 -319.9989929199219,194.09300231933594 C-319.9989929199219,194.09300231933594 -319.9989929199219,263.052001953125 -319.9989929199219,263.052001953125 C-319.9960021972656,270.4909973144531 -323.0270080566406,277.26800537109375 -327.9049987792969,282.13800048828125 C-332.7749938964844,287.0159912109375 -339.552001953125,290.0459899902344 -346.9909973144531,290.0429992675781 C-346.9909973144531,290.0429992675781 -363.4079895019531,290.0429992675781 -363.4079895019531,290.0429992675781 C-363.4079895019531,290.0429992675781 -363.4079895019531,280.93701171875 -363.4079895019531,280.93701171875 C-363.4079895019531,280.93701171875 -346.9909973144531,280.93701171875 -346.9909973144531,280.93701171875 C-342.03900146484375,280.9339904785156 -337.5950012207031,278.9429931640625 -334.3450012207031,275.6990051269531 C-331.10101318359375,272.447998046875 -329.1090087890625,268.0060119628906 -329.1059875488281,263.052001953125 C-329.1059875488281,263.052001953125 -329.1059875488281,194.09300231933594 -329.1059875488281,194.09300231933594 C-329.1090087890625,189.13900756835938 -331.10101318359375,184.69700622558594 -334.3450012207031,181.4459991455078 C-337.5950012207031,178.20199584960938 -342.03900146484375,176.21099853515625 -346.9909973144531,176.20799255371094 C-346.9909973144531,176.20799255371094 -361.5870056152344,176.20799255371094 -361.5870056152344,176.20799255371094 C-361.5870056152344,176.20799255371094 -361.5870056152344,167.1020050048828 -361.5870056152344,167.1020050048828z"></path></g></g><g transform="matrix(1,0,0,1,800,600)" opacity="1" style="display: block;"><g opacity="1" transform="matrix(1,0,0,1,0,0)"><path fill="rgb(25,25,43)" fill-opacity="1" d=" M-405.4880065917969,174.8419952392578 C-405.4880065917969,174.8419952392578 -394.4519958496094,174.8419952392578 -394.4519958496094,174.8419952392578 C-389.5660095214844,174.8419952392578 -385.5679931640625,170.843994140625 -385.5679931640625,165.95799255371094 C-385.5679931640625,165.95799255371094 -385.5679931640625,152.156005859375 -385.5679931640625,152.156005859375 C-385.5679931640625,147.27000427246094 -389.5660095214844,143.27200317382812 -394.4519958496094,143.27200317382812 C-394.4519958496094,143.27200317382812 -405.4880065917969,143.27200317382812 -405.4880065917969,143.27200317382812 C-410.3739929199219,143.27200317382812 -414.37200927734375,147.27000427246094 -414.37200927734375,152.156005859375 C-414.37200927734375,152.156005859375 -414.37200927734375,165.95799255371094 -414.37200927734375,165.95799255371094 C-414.37200927734375,170.843994140625 -410.3739929199219,174.8419952392578 -405.4880065917969,174.8419952392578z"></path></g></g><g transform="matrix(1,0,0,1,800,600)" opacity="1" style="display: block;"><g opacity="1" transform="matrix(1,0,0,1,0,0)"><path fill="rgb(229,122,135)" fill-opacity="1" d=" M-410.6830139160156,174.8419952392578 C-410.6830139160156,174.8419952392578 -399.6470031738281,174.8419952392578 -399.6470031738281,174.8419952392578 C-394.760986328125,174.8419952392578 -390.76300048828125,170.843994140625 -390.76300048828125,165.95799255371094 C-390.76300048828125,165.95799255371094 -390.76300048828125,152.156005859375 -390.76300048828125,152.156005859375 C-390.76300048828125,147.27000427246094 -394.760986328125,143.27200317382812 -399.6470031738281,143.27200317382812 C-399.6470031738281,143.27200317382812 -410.6830139160156,143.27200317382812 -410.6830139160156,143.27200317382812 C-415.5690002441406,143.27200317382812 -419.5669860839844,147.27000427246094 -419.5669860839844,152.156005859375 C-419.5669860839844,152.156005859375 -419.5669860839844,165.95799255371094 -419.5669860839844,165.95799255371094 C-419.5669860839844,170.843994140625 -415.5690002441406,174.8419952392578 -410.6830139160156,174.8419952392578z"></path></g></g><g transform="matrix(1,0,0,1,800,600)" opacity="1" style="display: block;"><g opacity="1" transform="matrix(1,0,0,1,0,0)"><path fill="rgb(48,61,114)" fill-opacity="1" d=" M-418.84100341796875,297.7349853515625 C-418.84100341796875,297.7349853515625 -355.3299865722656,297.7349853515625 -355.3299865722656,297.7349853515625 C-346.7510070800781,297.7349853515625 -339.7300109863281,290.7139892578125 -339.7300109863281,282.135009765625 C-339.7300109863281,282.135009765625 -339.7300109863281,171.177001953125 -339.7300109863281,171.177001953125 C-339.7300109863281,162.5959930419922 -346.7510070800781,155.57699584960938 -355.3299865722656,155.57699584960938 C-355.3299865722656,155.57699584960938 -418.84100341796875,155.57699584960938 -418.84100341796875,155.57699584960938 C-427.4219970703125,155.57699584960938 -434.4410095214844,162.5959930419922 -434.4410095214844,171.177001953125 C-434.4410095214844,171.177001953125 -434.4410095214844,282.135009765625 -434.4410095214844,282.135009765625 C-434.4410095214844,290.7139892578125 -427.4219970703125,297.7349853515625 -418.84100341796875,297.7349853515625z"></path></g></g><g transform="matrix(1,0,0,1,800,600)" opacity="1" style="display: block;"><g opacity="1" transform="matrix(1,0,0,1,0,0)"><path fill="rgb(255,147,152)" fill-opacity="1" d=" M-440.6969909667969,297.7349853515625 C-440.6969909667969,297.7349853515625 -377.18701171875,297.7349853515625 -377.18701171875,297.7349853515625 C-368.6080017089844,297.7349853515625 -361.5870056152344,290.7139892578125 -361.5870056152344,282.135009765625 C-361.5870056152344,282.135009765625 -361.5870056152344,171.177001953125 -361.5870056152344,171.177001953125 C-361.5870056152344,162.5959930419922 -368.6080017089844,155.57699584960938 -377.18701171875,155.57699584960938 C-377.18701171875,155.57699584960938 -440.6969909667969,155.57699584960938 -440.6969909667969,155.57699584960938 C-449.27801513671875,155.57699584960938 -456.2969970703125,162.5959930419922 -456.2969970703125,171.177001953125 C-456.2969970703125,171.177001953125 -456.2969970703125,282.135009765625 -456.2969970703125,282.135009765625 C-456.2969970703125,290.7139892578125 -449.27801513671875,297.7349853515625 -440.6969909667969,297.7349853515625z"></path></g></g><g transform="matrix(1,0,0,1,800,600)" opacity="1" style="display: block;"><g opacity="1" transform="matrix(1,0,0,1,0,0)"><path fill="rgb(244,130,139)" fill-opacity="1" d=" M-456.2969970703125,229.28199768066406 C-456.2969970703125,229.28199768066406 -456.2969970703125,282.1340026855469 -456.2969970703125,282.1340026855469 C-456.2969970703125,290.7149963378906 -449.27801513671875,297.7340087890625 -440.6969909667969,297.7340087890625 C-440.6969909667969,297.7340087890625 -377.18701171875,297.7340087890625 -377.18701171875,297.7340087890625 C-368.6080017089844,297.7340087890625 -361.5870056152344,290.7149963378906 -361.5870056152344,282.1340026855469 C-361.5870056152344,282.1340026855469 -361.5870056152344,246.39100646972656 -361.5870056152344,246.39100646972656 C-361.5870056152344,246.39100646972656 -456.2969970703125,229.28199768066406 -456.2969970703125,229.28199768066406z"></path></g></g><g transform="matrix(1,0,0,1,800,600)" opacity="1" style="display: block;"><g opacity="1" transform="matrix(1,0,0,1,0,0)"><path fill="rgb(25,25,43)" fill-opacity="1" d=" M-431.364013671875,287.4639892578125 C-431.364013671875,287.4639892578125 -386.52099609375,287.4639892578125 -386.52099609375,287.4639892578125 C-377.9419860839844,287.4639892578125 -370.9209899902344,280.4429931640625 -370.9209899902344,271.864013671875 C-370.9209899902344,271.864013671875 -370.9209899902344,202.31500244140625 -370.9209899902344,202.31500244140625 C-370.9209899902344,202.31500244140625 -431.364013671875,202.31500244140625 -431.364013671875,202.31500244140625 C-439.9429931640625,202.31500244140625 -446.9639892578125,209.33399963378906 -446.9639892578125,217.9149932861328 C-446.9639892578125,217.9149932861328 -446.9639892578125,271.864013671875 -446.9639892578125,271.864013671875 C-446.9639892578125,280.4429931640625 -439.9429931640625,287.4639892578125 -431.364013671875,287.4639892578125z"></path></g></g><g transform="matrix(1,0,0,1,800,600)" opacity="1" style="display: block;"><g opacity="1" transform="matrix(1,0,0,1,0,0)"><path fill="rgb(249,194,0)" fill-opacity="1" d=" M-435.4620056152344,287.4639892578125 C-435.4620056152344,287.4639892578125 -390.6199951171875,287.4639892578125 -390.6199951171875,287.4639892578125 C-382.0409851074219,287.4639892578125 -375.0199890136719,280.4429931640625 -375.0199890136719,271.864013671875 C-375.0199890136719,271.864013671875 -375.0199890136719,202.31500244140625 -375.0199890136719,202.31500244140625 C-375.0199890136719,202.31500244140625 -451.06201171875,202.31500244140625 -451.06201171875,202.31500244140625 C-451.06201171875,202.31500244140625 -451.06201171875,271.864013671875 -451.06201171875,271.864013671875 C-451.06201171875,280.4429931640625 -444.0409851074219,287.4639892578125 -435.4620056152344,287.4639892578125z"></path></g></g><g transform="matrix(1,0,0,1,800,600)" opacity="1" style="display: block;"><g opacity="1" transform="matrix(1,0,0,1,0,0)"><path fill="rgb(25,25,43)" fill-opacity="1" d=" M-438.0799865722656,197.61000061035156 C-438.0799865722656,197.61000061035156 -379.8059997558594,197.61000061035156 -379.8059997558594,197.61000061035156 C-374.9200134277344,197.61000061035156 -370.9209899902344,193.61199951171875 -370.9209899902344,188.7259979248047 C-370.9209899902344,188.7259979248047 -370.9209899902344,174.9219970703125 -370.9209899902344,174.9219970703125 C-370.9209899902344,170.03700256347656 -374.9200134277344,166.03900146484375 -379.8059997558594,166.03900146484375 C-379.8059997558594,166.03900146484375 -438.0799865722656,166.03900146484375 -438.0799865722656,166.03900146484375 C-442.96600341796875,166.03900146484375 -446.9639892578125,170.03700256347656 -446.9639892578125,174.9219970703125 C-446.9639892578125,174.9219970703125 -446.9639892578125,188.7259979248047 -446.9639892578125,188.7259979248047 C-446.9639892578125,193.61199951171875 -442.96600341796875,197.61000061035156 -438.0799865722656,197.61000061035156z"></path></g></g><g transform="matrix(1,0,0,1,800,600)" opacity="1" style="display: block;"><g opacity="1" transform="matrix(1,0,0,1,0,0)"><path fill="rgb(249,194,0)" fill-opacity="1" d=" M-442.1780090332031,197.61000061035156 C-442.1780090332031,197.61000061035156 -383.90399169921875,197.61000061035156 -383.90399169921875,197.61000061035156 C-379.01800537109375,197.61000061035156 -375.0199890136719,193.61199951171875 -375.0199890136719,188.7259979248047 C-375.0199890136719,188.7259979248047 -375.0199890136719,174.9219970703125 -375.0199890136719,174.9219970703125 C-375.0199890136719,170.03700256347656 -379.01800537109375,166.03900146484375 -383.90399169921875,166.03900146484375 C-383.90399169921875,166.03900146484375 -442.1780090332031,166.03900146484375 -442.1780090332031,166.03900146484375 C-447.0639953613281,166.03900146484375 -451.06201171875,170.03700256347656 -451.06201171875,174.9219970703125 C-451.06201171875,174.9219970703125 -451.06201171875,188.7259979248047 -451.06201171875,188.7259979248047 C-451.06201171875,193.61199951171875 -447.0639953613281,197.61000061035156 -442.1780090332031,197.61000061035156z"></path></g></g><g transform="matrix(1,0,0,1,800,600)" opacity="1" style="display: block;"><g opacity="1" transform="matrix(1,0,0,1,0,0)"><path fill="rgb(237,182,7)" fill-opacity="1" d=" M-435.4620056152344,287.4639892578125 C-435.4620056152344,287.4639892578125 -390.6199951171875,287.4639892578125 -390.6199951171875,287.4639892578125 C-382.0409851074219,287.4639892578125 -375.0199890136719,280.4429931640625 -375.0199890136719,271.864013671875 C-375.0199890136719,271.864013671875 -375.0199890136719,236.33999633789062 -375.0199890136719,236.33999633789062 C-375.0199890136719,236.33999633789062 -451.06201171875,222.62399291992188 -451.06201171875,222.62399291992188 C-451.06201171875,222.62399291992188 -451.06201171875,271.864013671875 -451.06201171875,271.864013671875 C-451.06201171875,280.4429931640625 -444.0409851074219,287.4639892578125 -435.4620056152344,287.4639892578125z"></path></g></g></g></g><g clip-path="url(#cp_Wv5zXFWk)" transform="matrix(1.149999976158142,0,0,1.149999976158142,-125.70001220703125,-38)" opacity="1" style="display: block;"><g clip-path="url(#oQCyw4RTVH)"><g transform="matrix(1,0,0,1,800,600)" opacity="1" style="display: block;"><g opacity="1" transform="matrix(1,0,0,1,0,0)"><path fill="rgb(48,61,114)" fill-opacity="1" d=" M250.7969970703125,135.802001953125 C250.7969970703125,135.802001953125 250.7969970703125,135.802001953125 250.7969970703125,135.802001953125 C237.03799438476562,135.802001953125 225.7790069580078,124.54299926757812 225.7790069580078,110.78299713134766 C225.7790069580078,110.78299713134766 225.7790069580078,-279.52301025390625 225.7790069580078,-279.52301025390625 C225.7790069580078,-293.2829895019531 237.03799438476562,-304.5419921875 250.7969970703125,-304.5419921875 C264.5570068359375,-304.5419921875 275.8160095214844,-293.2829895019531 275.8160095214844,-279.52301025390625 C275.8160095214844,-279.52301025390625 275.8160095214844,110.78299713134766 275.8160095214844,110.78299713134766 C275.8160095214844,124.54299926757812 264.5570068359375,135.802001953125 250.7969970703125,135.802001953125z"></path></g></g><g transform="matrix(1,0,0,1,800,600)" opacity="1" style="display: block;"><g opacity="1" transform="matrix(1,0,0,1,0,0)"><path fill="rgb(240,241,244)" fill-opacity="1" d=" M245.0070037841797,135.802001953125 C245.0070037841797,135.802001953125 -319.41900634765625,135.802001953125 -319.41900634765625,135.802001953125 C-334.4670104980469,135.802001953125 -346.77899169921875,123.48999786376953 -346.77899169921875,108.44200134277344 C-346.77899169921875,108.44200134277344 -346.77899169921875,-277.1820068359375 -346.77899169921875,-277.1820068359375 C-346.77899169921875,-292.2300109863281 -334.4670104980469,-304.5419921875 -319.41900634765625,-304.5419921875 C-319.41900634765625,-304.5419921875 245.0070037841797,-304.5419921875 245.0070037841797,-304.5419921875 C260.05499267578125,-304.5419921875 272.36700439453125,-292.2300109863281 272.36700439453125,-277.1820068359375 C272.36700439453125,-277.1820068359375 272.36700439453125,108.44200134277344 272.36700439453125,108.44200134277344 C272.36700439453125,123.48999786376953 260.05499267578125,135.802001953125 245.0070037841797,135.802001953125z"></path></g></g><g transform="matrix(1,0,0,1,800,600)" opacity="1" style="display: block;"><g opacity="1" transform="matrix(1,0,0,1,0,0)"><path fill="rgb(96,214,230)" fill-opacity="1" d=" M-319.739990234375,-282.4989929199219 C-319.739990234375,-279.3559875488281 -322.2879943847656,-276.8070068359375 -325.4330139160156,-276.8070068359375 C-328.57598876953125,-276.8070068359375 -331.1239929199219,-279.3559875488281 -331.1239929199219,-282.4989929199219 C-331.1239929199219,-285.6440124511719 -328.57598876953125,-288.1910095214844 -325.4330139160156,-288.1910095214844 C-322.2879943847656,-288.1910095214844 -319.739990234375,-285.6440124511719 -319.739990234375,-282.4989929199219z"></path></g></g><g transform="matrix(1,0,0,1,800,600)" opacity="1" style="display: block;"><g opacity="1" transform="matrix(1,0,0,1,0,0)"><path fill="rgb(96,214,230)" fill-opacity="1" d=" M-296.32598876953125,-282.4989929199219 C-296.32598876953125,-279.3559875488281 -298.875,-276.8070068359375 -302.01800537109375,-276.8070068359375 C-305.1629943847656,-276.8070068359375 -307.7099914550781,-279.3559875488281 -307.7099914550781,-282.4989929199219 C-307.7099914550781,-285.6440124511719 -305.1629943847656,-288.1910095214844 -302.01800537109375,-288.1910095214844 C-298.875,-288.1910095214844 -296.32598876953125,-285.6440124511719 -296.32598876953125,-282.4989929199219z"></path></g></g><g transform="matrix(1,0,0,1,800,600)" opacity="1" style="display: block;"><g opacity="1" transform="matrix(1,0,0,1,0,0)"><path fill="rgb(96,214,230)" fill-opacity="1" d=" M-273.5559997558594,-282.4989929199219 C-273.5559997558594,-279.3559875488281 -276.1059875488281,-276.8070068359375 -279.2489929199219,-276.8070068359375 C-282.3940124511719,-276.8070068359375 -284.9410095214844,-279.3559875488281 -284.9410095214844,-282.4989929199219 C-284.9410095214844,-285.6440124511719 -282.3940124511719,-288.1910095214844 -279.2489929199219,-288.1910095214844 C-276.1059875488281,-288.1910095214844 -273.5559997558594,-285.6440124511719 -273.5559997558594,-282.4989929199219z"></path></g></g><g transform="matrix(1,0,0,1,800,600)" opacity="1" style="display: block;"><g opacity="1" transform="matrix(1,0,0,1,0,0)"><path fill="rgb(255,176,178)" fill-opacity="1" d=" M-82.16300201416016,81.23600006103516 C-118.77799987792969,72.53199768066406 -151.96800231933594,51.459999084472656 -175.62100219726562,21.902999877929688 C-199.98599243164062,-8.543999671936035 -212.86399841308594,-45.29399871826172 -212.86399841308594,-84.37100219726562 C-212.86399841308594,-178.22900390625 -136.50399780273438,-254.58799743652344 -42.645999908447266,-254.58799743652344 C-42.645999908447266,-254.58799743652344 -42.645999908447266,-250.68800354003906 -42.645999908447266,-250.68800354003906 C-134.35299682617188,-250.68800354003906 -208.96400451660156,-176.0780029296875 -208.96400451660156,-84.37100219726562 C-208.96400451660156,-46.18899917602539 -196.3800048828125,-10.281000137329102 -172.5749969482422,19.466999053955078 C-149.46299743652344,48.3489990234375 -117.03399658203125,68.93800354003906 -81.26100158691406,77.44300079345703 C-81.26100158691406,77.44300079345703 -82.16300201416016,81.23600006103516 -82.16300201416016,81.23600006103516z"></path></g></g><g transform="matrix(1,0,0,1,800,600)" opacity="1" style="display: block;"><g opacity="1" transform="matrix(1,0,0,1,0,0)"><path fill="rgb(96,214,230)" fill-opacity="1" d=" M-42.645999908447266,85.84700012207031 C-42.645999908447266,85.84700012207031 -42.645999908447266,81.9469985961914 -42.645999908447266,81.9469985961914 C49.06100082397461,81.9469985961914 123.6709976196289,7.336999893188477 123.6709976196289,-84.37100219726562 C123.6709976196289,-160.26100158691406 72.41699981689453,-226.48800659179688 -0.9710000157356262,-245.42300415039062 C-0.9710000157356262,-245.42300415039062 0.004000000189989805,-249.19900512695312 0.004000000189989805,-249.19900512695312 C75.11299896240234,-229.82000732421875 127.57099914550781,-162.0399932861328 127.57099914550781,-84.37100219726562 C127.57099914550781,9.487000465393066 51.21200180053711,85.84700012207031 -42.645999908447266,85.84700012207031z"></path></g></g></g></g><g transform="matrix(1,0,0,1,0,0)" opacity="1" style="display: block;"><g opacity="1" transform="matrix(1,0,0,1,359.6000061035156,957.9000244140625)"><g opacity="1" transform="matrix(0.06431911140680313,-0.9979293942451477,-0.9979293942451477,-0.06431911140680313,7.0872344970703125,-109.96046447753906)"></g><g opacity="1" transform="matrix(1,0,0,1,0,0)"><g class="09" opacity="1" transform="matrix(1,0,0,1,0,0)"></g></g><g opacity="1" transform="matrix(1,0,0,1,0,0)"><g opacity="1" transform="matrix(1,0,0,1,-200,-200)"></g></g><g opacity="1" transform="matrix(1,0,0,1,-135,0)"><g opacity="1" transform="matrix(1,0,0,1,0,0)"></g></g></g><g opacity="1" transform="matrix(1,0,0,1,0,0)"><g opacity="1" transform="matrix(1,0,0,1,359.6000061035156,957.9000244140625)"><path stroke-linecap="butt" stroke-linejoin="round" fill-opacity="0" stroke="rgb(48,61,114)" stroke-opacity="1" stroke-width="28" d=" M0,0 C0,0 114.36,12.1 114.36,12.1 C114.36,12.1 116.96,-99.2 117.05,-102.79"></path><g opacity="1" transform="matrix(0.06431911140680313,-0.9979293942451477,-0.9979293942451477,-0.06431911140680313,7.0872344970703125,-109.96046447753906)"></g></g></g></g><g transform="matrix(1.1206943988800049,0.2579614222049713,-0.2579614222049713,1.1206943988800049,519.0873413085938,843.4008178710938)" opacity="1" style="display: block;"><path fill="rgb(48,61,114)" fill-opacity="1" d=" M50,0 C50,0 50,0 50,0 C50,19.316499710083008 34.31650161743164,35 15,35 C15,35 -15,35 -15,35 C-34.31650161743164,35 -50,19.316499710083008 -50,0 C-50,0 -50,0 -50,0 C-50,-19.316499710083008 -34.31650161743164,-35 -15,-35 C-15,-35 15,-35 15,-35 C34.31650161743164,-35 50,-19.316499710083008 50,0z M50,0 C50,0 50,0 50,0 C50,19.316499710083008 34.31650161743164,35 15,35 C15,35 -15,35 -15,35 C-34.31650161743164,35 -50,19.316499710083008 -50,0 C-50,0 -50,0 -50,0 C-50,-19.316499710083008 -34.31650161743164,-35 -15,-35 C-15,-35 15,-35 15,-35 C34.31650161743164,-35 50,-19.316499710083008 50,0z"></path></g><g transform="matrix(1,0,0,1,0,0)" opacity="1" style="display: block;"><g opacity="1" transform="matrix(1,0,0,1,614.7745361328125,861.0535888671875)"><g opacity="1" transform="matrix(0.605327308177948,-0.7959766983985901,0.7959766983985901,0.605327308177948,71.72381591796875,-94.31341552734375)"></g><g opacity="1" transform="matrix(1,0,0,1,0,0)"><g class="09" opacity="1" transform="matrix(1,0,0,1,0,0)"></g></g><g opacity="1" transform="matrix(1,0,0,1,0,0)"><g opacity="1" transform="matrix(1,0,0,1,-200,-200)"></g></g><g opacity="1" transform="matrix(1,0,0,1,-135,0)"><g opacity="1" transform="matrix(1,0,0,1,0,0)"></g></g></g><g opacity="1" transform="matrix(1,0,0,1,0,0)"><g opacity="1" transform="matrix(1,0,0,1,614.7745361328125,861.0535888671875)"><path stroke-linecap="round" stroke-linejoin="round" fill-opacity="0" stroke="rgb(12,191,209)" stroke-opacity="1" stroke-width="24" d=" M0,0 C0,0 -22.12,-81.55 -22.12,-81.55 C-22.12,-81.55 -22.57,-163.34 -22.59,-165.97"></path><g opacity="1" transform="matrix(0.605327308177948,-0.7959766983985901,0.7959766983985901,0.605327308177948,71.72381591796875,-94.31341552734375)"></g></g></g></g><g transform="matrix(1,0,0,1,0,0)" opacity="1" style="display: block;"><g opacity="1" transform="matrix(1,0,0,1,622.9500122070312,965.9500122070312)"><g opacity="1" transform="matrix(-0.991584300994873,-0.12946270406246185,-0.12946270406246185,0.991584300994873,-100.061279296875,-13.06414794921875)"></g><g opacity="1" transform="matrix(1,0,0,1,0,0)"><g class="09" opacity="1" transform="matrix(1,0,0,1,0,0)"></g></g><g opacity="1" transform="matrix(1,0,0,1,0,0)"><g opacity="1" transform="matrix(1,0,0,1,-200,-200)"></g></g><g opacity="1" transform="matrix(1,0,0,1,-135,0)"><g opacity="1" transform="matrix(1,0,0,1,0,0)"></g></g></g><g opacity="1" transform="matrix(1,0,0,1,0,0)"><g opacity="1" transform="matrix(1,0,0,1,622.9500122070312,965.9500122070312)"><path stroke-linecap="butt" stroke-linejoin="round" fill-opacity="0" stroke="rgb(25,25,43)" stroke-opacity="1" stroke-width="30" d=" M0,0 C0,0 14.88,-101.46 14.88,-101.46 C14.88,-101.46 -83.74,-112.75 -86.92,-113.12"></path><g opacity="1" transform="matrix(-0.991584300994873,-0.12946270406246185,-0.12946270406246185,0.991584300994873,-100.061279296875,-13.06414794921875)"></g></g></g></g><g transform="matrix(0.9974246025085449,0.07179994136095047,-0.07179994136095047,0.9974246025085449,532.7177124023438,860.1607666015625)" opacity="1" style="display: block;"><g opacity="1" transform="matrix(1,0,0,1,0,0)"><path fill="rgb(25,25,43)" fill-opacity="1" d=" M105.822998046875,6.554999828338623 C105.822998046875,6.554999828338623 1.6970000267028809,-37.263999938964844 1.6970000267028809,-37.263999938964844 C1.6970000267028809,-37.263999938964844 -27.527999877929688,37.637001037597656 -27.527999877929688,37.637001037597656 C-27.527999877929688,37.637001037597656 105.822998046875,6.554999828338623 105.822998046875,6.554999828338623z"></path></g></g><g transform="matrix(1.0000050067901611,-0.0010549055878072977,0.0010549055878072977,1.0000050067901611,514.0472412109375,889.8082275390625)" opacity="1" style="display: block;"><g opacity="1" transform="matrix(1,0,0,1,0,0)"><path fill="rgb(48,61,114)" fill-opacity="1" d=" M-1.5,-54 C-1.5,-54 -9.357999801635742,4.677999973297119 -9.357999801635742,4.677999973297119 C-9.357999801635742,4.677999973297119 24.724000930786133,2.700000047683716 32.301998138427734,-10.550999641418457 C43.32400131225586,-29.825000762939453 45.25,-46.48400115966797 45.25,-46.48400115966797 C45.25,-46.48400115966797 -1.5,-54 -1.5,-54z"></path></g></g><g transform="matrix(0.9979974031448364,-0.0633414089679718,0.0633414089679718,0.9979974031448364,476.6983947753906,862.1377563476562)" opacity="1" style="display: block;"><g opacity="1" transform="matrix(1,0,0,1,0,0)"><path fill="rgb(48,61,114)" fill-opacity="1" d=" M-14.723999977111816,-19.510000228881836 C-17.224000930786133,35.21099853515625 -21,93 -21,93 C-21,93 -12.866999626159668,107.5530014038086 -12.866999626159668,107.5530014038086 C-12.866999626159668,107.5530014038086 4.25,109.75 4.25,109.75 C4.25,109.75 46,5 46,5 C46,5 50.895999908447266,-30.38599967956543 26.131999969482422,-41.724998474121094 C11.041000366210938,-48.6349983215332 -11.444000244140625,-49.5099983215332 -14.723999977111816,-19.510000228881836z"></path></g></g><g transform="matrix(1.149999976158142,0,0,1.149999976158142,794.2999877929688,652)" opacity="1" style="display: block;"><g opacity="1" transform="matrix(1,0,0,1,0,0)"><path fill="rgb(25,25,43)" fill-opacity="1" d=" M-156.34300231933594,271.5069885253906 C-156.34300231933594,271.5069885253906 -159.42999267578125,297.7349853515625 -159.42999267578125,297.7349853515625 C-159.42999267578125,297.7349853515625 -121.00199890136719,297.7349853515625 -121.00199890136719,297.7349853515625 C-121.00199890136719,293.3340148925781 -124.06999969482422,289.5299987792969 -128.37100219726562,288.5989990234375 C-128.37100219726562,288.5989990234375 -143.5050048828125,285.3190002441406 -143.5050048828125,285.3190002441406 C-143.5050048828125,285.3190002441406 -141.55499267578125,271.5069885253906 -141.55499267578125,271.5069885253906 C-141.55499267578125,271.5069885253906 -156.34300231933594,271.5069885253906 -156.34300231933594,271.5069885253906z"></path></g></g><g transform="matrix(1.1499477624893188,-0.010956250131130219,0.010956250131130219,1.1499477624893188,791.3661499023438,647.872802734375)" opacity="1" style="display: block;"><g opacity="1" transform="matrix(1,0,0,1,0,0)"><path fill="rgb(48,61,114)" fill-opacity="1" d=" M-366.7799987792969,259.48199462890625 C-366.7799987792969,259.48199462890625 -397.0050048828125,252.33200073242188 -397.0050048828125,252.33200073242188 C-397.0050048828125,252.33200073242188 -409.51800537109375,297.7349853515625 -409.51800537109375,297.7349853515625 C-409.51800537109375,297.7349853515625 -393.1050109863281,297.7349853515625 -393.1050109863281,297.7349853515625 C-388.5790100097656,294.2070007324219 -387.1969909667969,287.9620056152344 -389.81298828125,282.8550109863281 C-389.81298828125,282.8550109863281 -388.89599609375,278.1099853515625 -388.89599609375,278.1099853515625 C-388.89599609375,278.1099853515625 -370.0299987792969,276.81500244140625 -370.0299987792969,276.81500244140625 C-370.0299987792969,276.81500244140625 -366.7799987792969,259.48199462890625 -366.7799987792969,259.48199462890625z"></path></g></g><g transform="matrix(1.1206943988800049,0.2579614222049713,-0.2579614222049713,1.1206943988800049,832.2542724609375,718.41357421875)" opacity="1" style="display: block;"><g opacity="1" transform="matrix(1,0,0,1,0,0)"><path fill="rgb(96,214,230)" fill-opacity="1" d=" M-230.1929931640625,4.589000225067139 C-230.1929931640625,4.589000225067139 -199.05499267578125,17.523000717163086 -199.05499267578125,17.523000717163086 C-199.05499267578125,17.523000717163086 -190.38900756835938,164.8560028076172 -190.38900756835938,164.8560028076172 C-190.38900756835938,164.8560028076172 -241.52200317382812,199.5229949951172 -290.9219970703125,163.1230010986328 C-290.9219970703125,163.1230010986328 -289.8380126953125,27.12700080871582 -289.8380126953125,27.12700080871582 C-289.7749938964844,19.18199920654297 -284.489990234375,12.227999687194824 -276.85400390625,10.03600025177002 C-276.85400390625,10.03600025177002 -256.6130065917969,4.22599983215332 -256.6130065917969,4.22599983215332 C-256.6130065917969,4.22599983215332 -230.1929931640625,4.589000225067139 -230.1929931640625,4.589000225067139z"></path></g></g><g transform="matrix(1.1206943988800049,0.2579614222049713,-0.2579614222049713,1.1206943988800049,832.2542724609375,718.41357421875)" opacity="1" style="display: block;"><g opacity="1" transform="matrix(1,0,0,1,0,0)"><path fill="rgb(80,202,211)" fill-opacity="1" d=" M-268.2569885253906,53.20500183105469 C-268.2569885253906,53.20500183105469 -289.32000732421875,37.19599914550781 -289.32000732421875,37.19599914550781 C-289.32000732421875,37.19599914550781 -290.3240051269531,163.1230010986328 -290.3240051269531,163.1230010986328 C-279.8160095214844,170.86599731445312 -269.23199462890625,175.38400268554688 -259.07598876953125,177.71400451660156 C-259.07598876953125,177.71400451660156 -268.2569885253906,53.20500183105469 -268.2569885253906,53.20500183105469z"></path></g></g><g transform="matrix(1.1056578159332275,0.3162604868412018,-0.3162604868412018,1.1056578159332275,829.1001586914062,732.7388916015625)" opacity="1" style="display: block;"><g opacity="1" transform="matrix(1,0,0,1,0,0)"><path fill="rgb(251,173,131)" fill-opacity="1" d=" M-256.6130065917969,-29.641000747680664 C-256.6130065917969,-29.641000747680664 -256.6130065917969,4.22599983215332 -256.6130065917969,4.22599983215332 C-256.6130065917969,4.22599983215332 -250.92599487304688,9.057999610900879 -240.9199981689453,8.479000091552734 C-231.66400146484375,7.941999912261963 -230.1929931640625,4.589000225067139 -230.1929931640625,4.589000225067139 C-230.1929931640625,4.589000225067139 -226.36500549316406,-12.97599983215332 -226.36500549316406,-12.97599983215332 C-226.36500549316406,-12.97599983215332 -256.6130065917969,-29.641000747680664 -256.6130065917969,-29.641000747680664z"></path></g></g><g transform="matrix(1.0889729261398315,0.3696500062942505,-0.3696500062942505,1.0889729261398315,824.1975708007812,745.799072265625)" opacity="1" style="display: block;"><g opacity="1" transform="matrix(1,0,0,1,0,0)"><path fill="rgb(230,141,92)" fill-opacity="1" d=" M-229.5449981689453,1.6239999532699585 C-234.5189971923828,2.7300000190734863 -240.2760009765625,-0.36500000953674316 -244.57000732421875,-3.7790000438690186 C-252.49400329589844,-10.07800006866455 -255.7030029296875,-22.57200050354004 -255.7030029296875,-22.57200050354004 C-255.7030029296875,-22.57200050354004 -229.48599243164062,-14.694999694824219 -229.48599243164062,-14.694999694824219 C-229.48599243164062,-14.694999694824219 -226.36500549316406,-12.97599983215332 -226.36500549316406,-12.97599983215332 C-226.36500549316406,-12.97599983215332 -229.5449981689453,1.6239999532699585 -229.5449981689453,1.6239999532699585z"></path></g></g><g clip-path="url(#cp_ewgHCLiT)" transform="matrix(0.631603479385376,0.21439674496650696,-0.21439674496650696,0.631603479385376,536.1781616210938,502.97979736328125)" opacity="1" style="display: block;"><g transform="matrix(1,0,0,1,121.75,125)" opacity="1" style="display: block;"><g opacity="1" transform="matrix(1,0,0,1,0,0)"><path fill="rgb(26,34,73)" fill-opacity="1" d=" M45.5,-36.125 C42.875,-46 33.875,-36.75 33.875,-36.75 C33.875,-36.75 44,-5.125 44,-5.125 C44,-5.125 49.15700149536133,-22.367000579833984 45.5,-36.125z"></path></g></g><g transform="matrix(1,0,0,1,125,125)" opacity="1" style="display: block;"><g opacity="1" transform="matrix(1,0,0,1,0,0)"><path fill="rgb(251,173,131)" fill-opacity="1" d=" M30.25,-52 C18.273000717163086,-69.8270034790039 -49.5,-81.5 -52.25,-23 C-55.1150016784668,37.95399856567383 -27.5,60.25 -27.5,60.25 C-27.5,60.25 -12.25,84 19.75,80.75 C31.041000366210938,79.60299682617188 40,74 45.5,41.25 C51,8.5 41,-36 30.25,-52z"></path></g></g><g mask="url(#ly_QOwnckbEUr)" style="display: block;"><g transform="matrix(-1.25,0,0,1.25,260.625,574.875)" opacity="1"><g opacity="1" transform="matrix(1,0,0,1,0,0)"><path fill="rgb(26,34,73)" fill-opacity="1" d=" M61.96099853515625,-333.4440002441406 C61.96099853515625,-333.4440002441406 66.197998046875,-295.625 69.79199981689453,-290.0589904785156 C73.38700103759766,-284.49200439453125 85.36399841308594,-283.28399658203125 90.76200103759766,-285.6059875488281 C96.16000366210938,-287.927001953125 104.93299865722656,-296.29998779296875 107.125,-303.385009765625 C109.31900024414062,-310.4700012207031 75.14600372314453,-327.5369873046875 75.14600372314453,-327.5369873046875 C75.14600372314453,-327.5369873046875 61.96099853515625,-333.4440002441406 61.96099853515625,-333.4440002441406z"></path></g></g></g><g mask="url(#ly_JBQv2t0HEv)" style="display: block;"><g transform="matrix(1,0,0,1,130.75,125)" opacity="1"><g opacity="1" transform="matrix(1,0,0,1,0,0)"><path fill="rgb(26,34,73)" fill-opacity="1" d=" M-25.5,9.25 C-25.5,9.25 -70.75,15.25 -70.75,15.25 C-70.75,15.25 -69,62 -69,62 C-69,62 -12,84.75 -12,84.75 C-12,84.75 44.75,85 44.75,85 C44.75,85 56.5,44 56.5,44 C56.5,44 47.25,36.75 32,36.75 C11.5,36.75 5.5,47.25 -6.25,47 C-18,46.75 -25.5,9.25 -25.5,9.25z"></path></g></g></g><g mask="url(#ly_0a2lppBFB2)" style="display: block;"><g transform="matrix(1,0,0,1,130.75,125)" opacity="1"><g opacity="1" transform="matrix(1,0,0,1,0,0)"><path fill="rgb(26,34,73)" fill-opacity="1" d=" M49.75,-74 C49.75,-74 -85.25,-71.25 -85.25,-71.25 C-85.25,-71.25 -75,17.25 -75,17.25 C-75,17.25 -4.75,56.5 -11,44.75 C-15.345999717712402,36.58000183105469 -30.25,-25.75 -17.5,-35.75 C-9.812000274658203,-41.77899932861328 7.565999984741211,-42.097999572753906 18.75,-40.5 C39.75,-37.5 46.25,-37.75 46.25,-37.75 C46.25,-37.75 49.75,-74 49.75,-74z"></path></g></g></g><g transform="matrix(1,0,0,1,125,125)" opacity="1" style="display: block;"><g opacity="1" transform="matrix(1,0,0,1,0,0)"><path fill="rgb(26,34,73)" fill-opacity="1" d=" M20.25,-69.25 C20.25,-69.25 4.940000057220459,-73.52300262451172 -24.5,-67.75 C-50,-62.75 -52.5,-29.5 -52.5,-29.5 C-52.5,-29.5 -23.25,-43.75 -23.25,-43.75 C-23.25,-43.75 31,-37.5 31,-37.5 C31,-37.5 50.040000915527344,-34.47600173950195 45,-47 C36.75,-67.5 20.25,-69.25 20.25,-69.25z"></path></g></g><g transform="matrix(0.9975640773773193,-0.06975647062063217,0.06975647062063217,0.9975640773773193,130.48458862304688,119.51322937011719)" opacity="1" style="display: block;"><g opacity="1" transform="matrix(1,0,0,1,0,0)"><path fill="rgb(251,173,131)" fill-opacity="1" d=" M-39.25,2.25 C-50.75,2.25 -50.5,21.5 -50.5,21.5 C-50.5,21.5 -46.75,37.5 -30.75,37.5 C-21.25,37.5 -26,10.5 -26,10.5 C-26,10.5 -27.75,2.25 -39.25,2.25z"></path></g></g><g transform="matrix(0.9975640773773193,-0.06975647062063217,0.06975647062063217,0.9975640773773193,132.06813049316406,120.65554809570312)" opacity="1" style="display: block;"><g opacity="1" transform="matrix(1,0,0,1,0,0)"><path fill="rgb(213,141,105)" fill-opacity="1" d=" M-37,11.5 C-36.875,11.125 -48.321998596191406,10.920999526977539 -43.25,22.625 C-41.625,26.375 -37.125,25.625 -37.125,25.625 C-37.125,25.625 -44.375,16.625 -37,11.5z"></path><path stroke-linecap="butt" stroke-linejoin="miter" fill-opacity="0" stroke-miterlimit="4" stroke="rgb(255,255,255)" stroke-opacity="1" stroke-width="24" d="M0 0"></path></g></g><g transform="matrix(1,0,0,1,130.75,125)" opacity="1" style="display: block;"></g><g transform="matrix(-1.25,0,0,1.25,259,564)" opacity="1" style="display: block;"><g opacity="1" transform="matrix(1,0,0,1,0,0)"><path fill="rgb(26,34,73)" fill-opacity="1" d=" M75.58599853515625,-355.3450012207031 C75.4489974975586,-355.3450012207031 75.30999755859375,-355.3680114746094 75.1729965209961,-355.4159851074219 C75.09400177001953,-355.4429931640625 74,-356.20001220703125 70.92900085449219,-355.1940002441406 C70.2760009765625,-354.9800109863281 69.57499694824219,-355.3869934082031 69.38300323486328,-356.052001953125 C69.19400024414062,-356.71600341796875 69.60800170898438,-357.3269958496094 70.24299621582031,-357.5979919433594 C74,-359.20001220703125 75.79199981689453,-357.8479919433594 76.00299835205078,-357.7749938964844 C76.65399932861328,-357.5459899902344 76.99500274658203,-356.83099365234375 76.76599884033203,-356.17999267578125 C76.58399963378906,-355.6669921875 76.10099792480469,-355.3450012207031 75.58599853515625,-355.3450012207031z"></path></g></g><g transform="matrix(-1.25,0,0,1.25,255.5,564)" opacity="1" style="display: block;"><g opacity="1" transform="matrix(1,0,0,1,0,0)"><path fill="rgb(26,34,73)" fill-opacity="1" d=" M97.1969985961914,-352.156005859375 C96.8489990234375,-352.156005859375 96.5009994506836,-352.3009948730469 96.25399780273438,-352.5849914550781 C96.05400085449219,-352.8110046386719 91.5790023803711,-357.7460021972656 83.48600006103516,-355.1650085449219 C82.8270034790039,-354.95599365234375 82.1240005493164,-355.3190002441406 81.91500091552734,-355.97601318359375 C81.70600128173828,-356.6340026855469 82.06800079345703,-357.3370056152344 82.72599792480469,-357.5469970703125 C92.43699645996094,-360.64801025390625 97.91400146484375,-354.4880065917969 98.14099884033203,-354.2239990234375 C98.59300231933594,-353.7019958496094 98.53600311279297,-352.91400146484375 98.01399993896484,-352.4620056152344 C97.77799987792969,-352.2569885253906 97.48799896240234,-352.156005859375 97.1969985961914,-352.156005859375z"></path></g></g><g transform="matrix(0.7172601819038391,-0.0627521350979805,0.0627521350979805,0.7172601819038391,241.6779327392578,490.37060546875)" opacity="1" style="display: block;"><g opacity="1" transform="matrix(1,0,0,1,0,0)"></g><g opacity="1" transform="matrix(1,0,0,1,0,0)"><path fill="rgb(255,255,255)" fill-opacity="1" d=" M-87.125,-449.125 C-87.125,-449.125 -85.06500244140625,-442.2770080566406 -75.06500244140625,-442.2770080566406 C-66.31500244140625,-442.2770080566406 -66.125,-447.75 -66.125,-447.75 C-66.125,-447.75 -87.125,-449.125 -87.125,-449.125z"></path></g></g><g transform="matrix(1,0,0,1,125,125)" opacity="1" style="display: block;"></g></g><g transform="matrix(0.9790745973587036,-0.20350171625614166,0.20350171625614166,0.9790745973587036,753.4606323242188,643.3793334960938)" opacity="1" style="display: block;"><g opacity="1" transform="matrix(1,0,0,1,0,0)"><path fill="rgb(255,147,152)" fill-opacity="1" d=" M-86.13300323486328,58.55400085449219 C-86.13300323486328,58.55400085449219 -81.31300354003906,79.37000274658203 -81.31300354003906,79.37000274658203 C-81.31300354003906,79.37000274658203 -97.7750015258789,64.33799743652344 -97.7750015258789,64.33799743652344 C-97.7750015258789,64.33799743652344 -135.33299255371094,-11.262999534606934 -135.33299255371094,-11.262999534606934 C-135.33299255371094,-11.262999534606934 -123.69000244140625,-17.047000885009766 -123.69000244140625,-17.047000885009766 C-123.69000244140625,-17.047000885009766 -86.13300323486328,58.55400085449219 -86.13300323486328,58.55400085449219z"></path></g></g><g transform="matrix(0.9790745973587036,-0.20350171625614166,0.20350171625614166,0.9790745973587036,753.4606323242188,643.3793334960938)" opacity="1" style="display: block;"><g opacity="1" transform="matrix(1,0,0,1,0,0)"><path fill="rgb(251,173,131)" fill-opacity="1" d=" M-111.20500183105469,68.2249984741211 C-111.20500183105469,68.2249984741211 -97.3010025024414,62.56800079345703 -88.81800079345703,66.33899688720703 C-80.33399963378906,70.11000061035156 -77.50599670410156,69.05000305175781 -76.09200286865234,66.63400268554688 C-74.6780014038086,64.21900177001953 -77.03399658203125,57.14899826049805 -82.9260025024414,51.49300003051758 C-88.81800079345703,45.83700180053711 -104.16799926757812,51.49300003051758 -104.16799926757812,51.49300003051758 C-104.16799926757812,51.49300003051758 -106.90599822998047,45.97999954223633 -106.90599822998047,45.97999954223633 C-106.90599822998047,45.97999954223633 -110.05699920654297,47.88800048828125 -111.20500183105469,51.25699996948242 C-112.35399627685547,54.625999450683594 -115.44599914550781,57.39799880981445 -115.44599914550781,57.39799880981445 C-115.44599914550781,57.39799880981445 -111.20500183105469,68.2249984741211 -111.20500183105469,68.2249984741211z"></path></g></g><g transform="matrix(1,0,0,1,0,0)" opacity="1" style="display: block;"><g opacity="1" transform="matrix(1,0,0,1,660.546630859375,722.0169677734375)"><g opacity="1" transform="matrix(-0.4763447642326355,-0.8792585730552673,0.8792585730552673,-0.4763447642326355,-52.85963439941406,-97.57069396972656)"></g><g opacity="1" transform="matrix(1,0,0,1,0,0)"><g class="09" opacity="1" transform="matrix(1,0,0,1,0,0)"></g></g><g opacity="1" transform="matrix(1,0,0,1,0,0)"><g opacity="1" transform="matrix(1,0,0,1,-200,-200)"></g></g><g opacity="1" transform="matrix(1,0,0,1,-135,0)"><g opacity="1" transform="matrix(1,0,0,1,0,0)"></g></g></g><g opacity="1" transform="matrix(1,0,0,1,0,0)"><g opacity="1" transform="matrix(1,0,0,1,660.546630859375,722.0169677734375)"><path stroke-linecap="butt" stroke-linejoin="round" fill-opacity="0" stroke="rgb(96,214,230)" stroke-opacity="1" stroke-width="24" d=" M0,0 C0,0 -94.17,41.42 -94.17,41.42 C-94.17,41.42 -148.63,-41.96 -150.39,-44.64"></path><g opacity="1" transform="matrix(-0.4763447642326355,-0.8792585730552673,0.8792585730552673,-0.4763447642326355,-52.85963439941406,-97.57069396972656)"></g></g></g></g><g transform="matrix(1,0,0,1,663,727)" opacity="1" style="display: block;"></g><g transform="matrix(1.149999976158142,0,0,1.149999976158142,794.2999877929688,652)" opacity="1" style="display: block;"><g opacity="1" transform="matrix(1,0,0,1,0,0)"><path fill="rgb(25,25,43)" fill-opacity="1" d=" M384.2770080566406,185.6699981689453 C384.2770080566406,185.6699981689453 367.0249938964844,297.6730041503906 367.0249938964844,297.6730041503906 C367.0249938964844,297.6730041503906 361.9670104980469,297.6730041503906 361.9670104980469,297.6730041503906 C361.9670104980469,297.6730041503906 368.5820007324219,185.6699981689453 368.5820007324219,185.6699981689453 C368.5820007324219,185.6699981689453 384.2770080566406,185.6699981689453 384.2770080566406,185.6699981689453z"></path></g></g><g clip-path="url(#cp_KqIdtOlJ)" transform="matrix(1.149999976158142,0,0,1.149999976158142,-125.70001220703125,-38)" opacity="1" style="display: block;"><g clip-path="url(#lexAr8fHc3)"><g transform="matrix(1,0,0,1,800,600)" opacity="1" style="display: block;"><g opacity="1" transform="matrix(1,0,0,1,0,0)"><path fill="rgb(25,25,43)" fill-opacity="1" d=" M377.5320129394531,185.6699981689453 C377.5320129394531,185.6699981689453 363.9119873046875,297.6730041503906 363.9119873046875,297.6730041503906 C363.9119873046875,297.6730041503906 358.8550109863281,297.6730041503906 358.8550109863281,297.6730041503906 C358.8550109863281,297.6730041503906 365.468994140625,185.6699981689453 365.468994140625,185.6699981689453 C365.468994140625,185.6699981689453 377.5320129394531,185.6699981689453 377.5320129394531,185.6699981689453z"></path></g></g><g transform="matrix(1,0,0,1,800,600)" opacity="1" style="display: block;"><g opacity="1" transform="matrix(1,0,0,1,0,0)"><path fill="rgb(25,25,43)" fill-opacity="1" d=" M302.0740051269531,185.6699981689453 C302.0740051269531,185.6699981689453 284.8219909667969,297.6730041503906 284.8219909667969,297.6730041503906 C284.8219909667969,297.6730041503906 279.76300048828125,297.6730041503906 279.76300048828125,297.6730041503906 C279.76300048828125,297.6730041503906 286.37799072265625,185.6699981689453 286.37799072265625,185.6699981689453 C286.37799072265625,185.6699981689453 302.0740051269531,185.6699981689453 302.0740051269531,185.6699981689453z"></path></g></g><g transform="matrix(1,0,0,1,800,600)" opacity="1" style="display: block;"><g opacity="1" transform="matrix(1,0,0,1,0,0)"><path fill="rgb(169,194,220)" fill-opacity="1" d=" M295.3290100097656,185.6699981689453 C295.3290100097656,185.6699981689453 281.7090148925781,297.6730041503906 281.7090148925781,297.6730041503906 C281.7090148925781,297.6730041503906 276.6499938964844,297.6730041503906 276.6499938964844,297.6730041503906 C276.6499938964844,297.6730041503906 283.2650146484375,185.6699981689453 283.2650146484375,185.6699981689453 C283.2650146484375,185.6699981689453 295.3290100097656,185.6699981689453 295.3290100097656,185.6699981689453z"></path></g></g><g transform="matrix(1,0,0,1,800,600)" opacity="1" style="display: block;"><g opacity="1" transform="matrix(1,0,0,1,0,0)"><path fill="rgb(25,25,43)" fill-opacity="1" d=" M379.24798583984375,185.6699981689453 C379.24798583984375,185.6699981689453 396.4989929199219,297.6730041503906 396.4989929199219,297.6730041503906 C396.4989929199219,297.6730041503906 401.5580139160156,297.6730041503906 401.5580139160156,297.6730041503906 C401.5580139160156,297.6730041503906 394.9419860839844,185.6699981689453 394.9419860839844,185.6699981689453 C394.9419860839844,185.6699981689453 379.24798583984375,185.6699981689453 379.24798583984375,185.6699981689453z"></path></g></g><g transform="matrix(1,0,0,1,800,600)" opacity="1" style="display: block;"><g opacity="1" transform="matrix(1,0,0,1,0,0)"><path fill="rgb(96,214,230)" fill-opacity="1" d=" M461.8869934082031,65.97599792480469 C461.8869934082031,65.97599792480469 387.2640075683594,65.97599792480469 387.2640075683594,65.97599792480469 C371.18798828125,65.97599792480469 358.1579895019531,79.00700378417969 358.1579895019531,95.08300018310547 C358.1579895019531,111.15799713134766 345.1260070800781,124.18800354003906 329.0509948730469,124.18800354003906 C329.0509948730469,124.18800354003906 301.47198486328125,124.18800354003906 301.47198486328125,124.18800354003906 C285.3970031738281,124.18800354003906 272.36700439453125,137.22000122070312 272.36700439453125,153.2949981689453 C272.36700439453125,153.2949981689453 272.36700439453125,185.6699981689453 272.36700439453125,185.6699981689453 C272.36700439453125,185.6699981689453 486.875,185.6699981689453 486.875,185.6699981689453 C486.875,185.6699981689453 486.875,90.96299743652344 486.875,90.96299743652344 C486.875,77.16300201416016 475.68798828125,65.97599792480469 461.8869934082031,65.97599792480469z"></path></g></g><g transform="matrix(1,0,0,1,800,600)" opacity="1" style="display: block;"><g opacity="1" transform="matrix(1,0,0,1,0,0)"><path fill="rgb(169,194,220)" fill-opacity="1" d=" M385.9930114746094,185.6699981689453 C385.9930114746094,185.6699981689453 399.6130065917969,297.6730041503906 399.6130065917969,297.6730041503906 C399.6130065917969,297.6730041503906 404.6709899902344,297.6730041503906 404.6709899902344,297.6730041503906 C404.6709899902344,297.6730041503906 398.0559997558594,185.6699981689453 398.0559997558594,185.6699981689453 C398.0559997558594,185.6699981689453 385.9930114746094,185.6699981689453 385.9930114746094,185.6699981689453z"></path></g></g><g transform="matrix(1,0,0,1,800,600)" opacity="1" style="display: block;"><g opacity="1" transform="matrix(1,0,0,1,0,0)"><path fill="rgb(25,25,43)" fill-opacity="1" d=" M461.4519958496094,185.6699981689453 C461.4519958496094,185.6699981689453 478.7030029296875,297.6730041503906 478.7030029296875,297.6730041503906 C478.7030029296875,297.6730041503906 483.76300048828125,297.6730041503906 483.76300048828125,297.6730041503906 C483.76300048828125,297.6730041503906 477.1470031738281,185.6699981689453 477.1470031738281,185.6699981689453 C477.1470031738281,185.6699981689453 461.4519958496094,185.6699981689453 461.4519958496094,185.6699981689453z"></path></g></g><g transform="matrix(1,0,0,1,800,600)" opacity="1" style="display: block;"><g opacity="1" transform="matrix(1,0,0,1,0,0)"><path fill="rgb(169,194,220)" fill-opacity="1" d=" M468.1969909667969,185.6699981689453 C468.1969909667969,185.6699981689453 481.8160095214844,297.6730041503906 481.8160095214844,297.6730041503906 C481.8160095214844,297.6730041503906 486.875,297.6730041503906 486.875,297.6730041503906 C486.875,297.6730041503906 480.260009765625,185.6699981689453 480.260009765625,185.6699981689453 C480.260009765625,185.6699981689453 468.1969909667969,185.6699981689453 468.1969909667969,185.6699981689453z"></path></g></g><g transform="matrix(1,0,0,1,800,600)" opacity="1" style="display: block;"><g opacity="1" transform="matrix(1,0,0,1,0,0)"><path fill="rgb(12,191,209)" fill-opacity="1" d=" M486.875,185.6699981689453 C486.875,185.6699981689453 486.875,117.3759994506836 486.875,117.3759994506836 C486.875,117.3759994506836 272.36700439453125,167.0229949951172 272.36700439453125,167.0229949951172 C272.36700439453125,167.0229949951172 272.36700439453125,185.6699981689453 272.36700439453125,185.6699981689453 C272.36700439453125,185.6699981689453 486.875,185.6699981689453 486.875,185.6699981689453z"></path></g></g></g></g><g transform="matrix(1.149999976158142,0,0,1.149999976158142,794.2999877929688,652)" opacity="1" style="display: block;"><g opacity="1" transform="matrix(1,0,0,1,0,0)"><path fill="rgb(48,61,114)" fill-opacity="1" d=" M494.17999267578125,298.385009765625 C494.17999267578125,298.385009765625 -494.17999267578125,298.385009765625 -494.17999267578125,298.385009765625 C-494.17999267578125,298.385009765625 -494.17999267578125,297.0849914550781 -494.17999267578125,297.0849914550781 C-494.17999267578125,297.0849914550781 494.17999267578125,297.0849914550781 494.17999267578125,297.0849914550781 C494.17999267578125,297.0849914550781 494.17999267578125,298.385009765625 494.17999267578125,298.385009765625z"></path></g></g><g clip-path="url(#cp_dPcRGz82)" transform="matrix(0.9200000166893005,0,0,0.9200000166893005,-4.6400146484375,146.0799560546875)" opacity="1" style="display: block;"><g transform="matrix(1,0,0,1,800,600)" opacity="1" style="display: block;"><g opacity="1" transform="matrix(1,0,0,1,0,0)"><path fill="rgb(230,141,92)" fill-opacity="1" d=" M352.4800109863281,121.88200378417969 C352.4800109863281,121.88200378417969 345.260986328125,300.760009765625 345.260986328125,300.760009765625 C345.260986328125,300.760009765625 321.63299560546875,297.1679992675781 321.63299560546875,297.1679992675781 C321.63299560546875,297.1679992675781 308.7439880371094,115.23500061035156 308.7439880371094,115.23500061035156 C308.7439880371094,115.23500061035156 352.4800109863281,121.88200378417969 352.4800109863281,121.88200378417969z"></path></g></g><g transform="matrix(1,0,0,1,800,600)" opacity="1" style="display: block;"><g opacity="1" transform="matrix(1,0,0,1,0,0)"><path fill="rgb(26,34,73)" fill-opacity="1" d=" M319.7640075683594,288.177001953125 C319.7640075683594,288.177001953125 347.57598876953125,290.4700012207031 347.57598876953125,290.4700012207031 C347.57598876953125,290.4700012207031 344.45098876953125,323.447998046875 344.45098876953125,323.447998046875 C344.45098876953125,323.447998046875 291.95098876953125,323.447998046875 291.95098876953125,323.447998046875 C291.95098876953125,318.0220031738281 295.4960021972656,313.2309875488281 300.68499755859375,311.6449890136719 C300.68499755859375,311.6449890136719 319.7640075683594,305.81201171875 319.7640075683594,305.81201171875 C319.7640075683594,305.81201171875 319.7640075683594,288.177001953125 319.7640075683594,288.177001953125z"></path></g></g><g transform="matrix(1,0,0,1,800,600)" opacity="1" style="display: block;"><g opacity="1" transform="matrix(1,0,0,1,0,0)"><path fill="rgb(251,173,130)" fill-opacity="1" d=" M369.97198486328125,121.53199768066406 C369.97198486328125,121.53199768066406 389.71099853515625,299.4630126953125 389.71099853515625,299.4630126953125 C389.71099853515625,299.4630126953125 365.81201171875,299.4630126953125 365.81201171875,299.4630126953125 C365.81201171875,299.4630126953125 325.7340087890625,121.53199768066406 325.7340087890625,121.53199768066406 C325.7340087890625,121.53199768066406 369.97198486328125,121.53199768066406 369.97198486328125,121.53199768066406z"></path></g></g><g transform="matrix(1,0,0,1,800,600)" opacity="1" style="display: block;"><g opacity="1" transform="matrix(1,0,0,1,0,0)"><path fill="rgb(48,61,114)" fill-opacity="1" d=" M389.71099853515625,288.177001953125 C389.71099853515625,288.177001953125 393.72198486328125,323.447998046875 393.72198486328125,323.447998046875 C393.72198486328125,323.447998046875 337.6809997558594,323.447998046875 337.6809997558594,323.447998046875 C337.6809997558594,318.3789978027344 340.7850036621094,313.82598876953125 345.5039978027344,311.9750061035156 C345.5039978027344,311.9750061035156 364.7640075683594,304.41900634765625 364.7640075683594,304.41900634765625 C364.7640075683594,304.41900634765625 362.47198486328125,291.50201416015625 362.47198486328125,291.50201416015625 C362.47198486328125,291.50201416015625 389.71099853515625,288.177001953125 389.71099853515625,288.177001953125z"></path></g></g><g transform="matrix(1,0,0,1,800,600)" opacity="1" style="display: block;"><g opacity="1" transform="matrix(1,0,0,1,0,0)"><path fill="rgb(247,163,121)" fill-opacity="1" d=" M335.3559875488281,164.2530059814453 C335.3559875488281,164.2530059814453 375.2720031738281,169.30299377441406 375.2720031738281,169.30299377441406 C375.2720031738281,169.30299377441406 369.97198486328125,121.53199768066406 369.97198486328125,121.53199768066406 C369.97198486328125,121.53199768066406 325.7340087890625,121.53199768066406 325.7340087890625,121.53199768066406 C325.7340087890625,121.53199768066406 335.3559875488281,164.2530059814453 335.3559875488281,164.2530059814453z"></path></g></g><g transform="matrix(1,0,0,1,0,0)" opacity="1" style="display: block;"><g opacity="1" transform="matrix(1,0,0,1,1149.0306396484375,560)"><g opacity="1" transform="matrix(-0.5977105498313904,-0.8017119765281677,-0.8017119765281677,0.5977105498313904,-68.41566467285156,-91.76625061035156)"></g><g opacity="1" transform="matrix(1,0,0,1,0,0)"><g class="09" opacity="1" transform="matrix(1,0,0,1,0,0)"></g></g><g opacity="1" transform="matrix(1,0,0,1,0,0)"><g opacity="1" transform="matrix(1,0,0,1,-200,-200)"></g></g><g opacity="1" transform="matrix(1,0,0,1,-135,0)"><g opacity="1" transform="matrix(1,0,0,1,0,0)"></g></g></g><g opacity="1" transform="matrix(1,0,0,1,0,0)"><g opacity="1" transform="matrix(1,0,0,1,1149.0306396484375,560)"><path stroke-linecap="round" stroke-linejoin="round" fill-opacity="0" stroke="rgb(248,153,0)" stroke-opacity="1" stroke-width="28" d=" M0,0 C0,0 65.17,-72.29 65.17,-72.29 C65.17,-72.29 24.69,-157.38 23.38,-160.11"></path><g opacity="1" transform="matrix(-0.5977105498313904,-0.8017119765281677,-0.8017119765281677,0.5977105498313904,-68.41566467285156,-91.76625061035156)"></g></g></g></g><g transform="matrix(1,0,0,1,800,600)" opacity="1" style="display: block;"><g opacity="1" transform="matrix(1,0,0,1,0,0)"><path fill="rgb(48,61,114)" fill-opacity="1" d=" M294.98199462890625,-71.84500122070312 C294.98199462890625,-71.84500122070312 266.45098876953125,133.85699462890625 266.45098876953125,133.85699462890625 C266.45098876953125,133.85699462890625 332.0039978027344,150.96200561523438 378.6239929199219,140.17999267578125 C425.2439880371094,129.39700317382812 425.2439880371094,129.39700317382812 425.2439880371094,129.39700317382812 C425.2439880371094,129.39700317382812 390.4590148925781,-69.79499816894531 390.4590148925781,-69.79499816894531 C390.4590148925781,-69.79499816894531 294.98199462890625,-71.84500122070312 294.98199462890625,-71.84500122070312z"></path></g></g><g transform="matrix(1,0,0,1,800,600)" opacity="1" style="display: block;"><g opacity="1" transform="matrix(1,0,0,1,0,0)"><path fill="rgb(39,52,94)" fill-opacity="1" d=" M381.7659912109375,139.4530029296875 C425.218994140625,129.4029998779297 425.2439880371094,129.39700317382812 425.2439880371094,129.39700317382812 C425.2439880371094,129.39700317382812 390.4580078125,-69.79499816894531 390.4580078125,-69.79499816894531 C390.4580078125,-69.79499816894531 360.75201416015625,-70.43199920654297 360.75201416015625,-70.43199920654297 C360.75201416015625,-70.43199920654297 381.7659912109375,139.4530029296875 381.7659912109375,139.4530029296875z"></path></g></g><g clip-path="url(#cp_m2kSv8JG)" transform="matrix(0.9989802241325378,-0.04514964669942856,0.04514964669942856,0.9989802241325378,-23.647165298461914,57.917381286621094)" opacity="1" style="display: block;"><g clip-path="url(#qyw79WPHMu)"><g transform="matrix(-0.3738879859447479,0,0,1,1211.4185791015625,600)" opacity="1" style="display: none;"><g opacity="1" transform="matrix(1,0,0,1,0,0)"><path fill="rgb(26,34,73)" fill-opacity="1" d=" M298.20098876953125,-271.9110107421875 C292.2919921875,-271.9110107421875 287.4849853515625,-277.6419982910156 287.4849853515625,-284.68499755859375 C287.4849853515625,-284.68499755859375 287.4849853515625,-285.30999755859375 287.4849853515625,-285.30999755859375 C287.4849853515625,-285.30999755859375 288.1099853515625,-285.3580017089844 288.1099853515625,-285.3580017089844 C288.1099853515625,-285.3580017089844 308.9159851074219,-285.3580017089844 308.9159851074219,-285.3580017089844 C308.9159851074219,-285.3580017089844 308.9159851074219,-284.7330017089844 308.9159851074219,-284.7330017089844 C308.9150085449219,-277.63800048828125 304.1090087890625,-271.9110107421875 298.20098876953125,-271.9110107421875z M288.7489929199219,-284.1080017089844 C289.0150146484375,-277.99798583984375 293.15301513671875,-273.1610107421875 298.20098876953125,-273.1610107421875 C303.2619934082031,-273.1610107421875 307.4079895019531,-278.02099609375 307.656005859375,-284.1080017089844 C307.656005859375,-284.1080017089844 288.7489929199219,-284.1080017089844 288.7489929199219,-284.1080017089844z"></path></g></g><g transform="matrix(1,0,0,1,802,600)" opacity="1" style="display: none;"><g opacity="1" transform="matrix(1,0,0,1,0,0)"><path fill="rgb(26,34,73)" fill-opacity="1" d=" M298.20098876953125,-271.9110107421875 C292.2919921875,-271.9110107421875 287.4849853515625,-277.6419982910156 287.4849853515625,-284.68499755859375 C287.4849853515625,-284.68499755859375 287.4849853515625,-285.30999755859375 287.4849853515625,-285.30999755859375 C287.4849853515625,-285.30999755859375 288.1099853515625,-285.3580017089844 288.1099853515625,-285.3580017089844 C288.1099853515625,-285.3580017089844 308.9159851074219,-285.3580017089844 308.9159851074219,-285.3580017089844 C308.9159851074219,-285.3580017089844 308.9159851074219,-284.7330017089844 308.9159851074219,-284.7330017089844 C308.9150085449219,-277.63800048828125 304.1090087890625,-271.9110107421875 298.20098876953125,-271.9110107421875z M288.7489929199219,-284.1080017089844 C289.0150146484375,-277.99798583984375 293.15301513671875,-273.1610107421875 298.20098876953125,-273.1610107421875 C303.2619934082031,-273.1610107421875 307.4079895019531,-278.02099609375 307.656005859375,-284.1080017089844 C307.656005859375,-284.1080017089844 288.7489929199219,-284.1080017089844 288.7489929199219,-284.1080017089844z"></path></g></g><g transform="matrix(0.9993908405303955,-0.03489840403199196,0.03489840403199196,0.9993908405303955,810.096923828125,611.8848266601562)" opacity="1" style="display: block;"><g opacity="1" transform="matrix(1,0,0,1,0,0)"><path fill="rgb(251,173,131)" fill-opacity="1" d=" M358.9549865722656,-228.9199981689453 C358.531005859375,-228.177001953125 337.5,-224.5 323.27398681640625,-227.75799560546875 C323.27398681640625,-227.75799560546875 322.2340087890625,-249.2469940185547 322.2340087890625,-249.2469940185547 C322.2340087890625,-249.2469940185547 359.8689880371094,-266.6080017089844 359.8689880371094,-266.6080017089844 C359.8689880371094,-266.6080017089844 358.9549865722656,-228.9199981689453 358.9549865722656,-228.9199981689453z"></path></g></g><g transform="matrix(0.9975641369819641,-0.06975428760051727,0.06975428760051727,0.9975641369819641,819.5836181640625,623.3963012695312)" opacity="1" style="display: block;"><g opacity="1" transform="matrix(1,0,0,1,0,0)"><path fill="rgb(251,173,131)" fill-opacity="1" d=" M300.9490051269531,-254.75799560546875 C312.9739990234375,-229.46200561523438 343.2560119628906,-249.81700134277344 356.0360107421875,-262.57000732421875 C368.8160095214844,-275.3240051269531 366.6080017089844,-318.65899658203125 363.07000732421875,-327.8890075683594 C359.5320129394531,-337.1189880371094 329.99798583984375,-344.6109924316406 314.4200134277344,-338.65301513671875 C298.8420104980469,-332.69500732421875 288.92401123046875,-280.0539855957031 300.9490051269531,-254.75799560546875z"></path></g></g><g transform="matrix(0.9975641369819641,-0.06975428760051727,0.06975428760051727,0.9975641369819641,819.5836181640625,623.3963012695312)" opacity="1" style="display: block;"><g opacity="1" transform="matrix(1,0,0,1,0,0)"><path fill="rgb(26,34,73)" fill-opacity="1" d=" M324.7131652832031,-235.13043212890625 C331.7891540527344,-232.534423828125 336.0780029296875,-228.26300048828125 353.54400634765625,-231.39999389648438 C362.8450012207031,-233.0709991455078 370.2489929199219,-236.29100036621094 375.45001220703125,-239.11300659179688 C382.1990051269531,-270.3949890136719 384.1830139160156,-305.093994140625 370.1669921875,-330.3210144042969 C360.41400146484375,-347.87701416015625 334.6659851074219,-353.7820129394531 318.0320129394531,-347.5220031738281 C293.8290100097656,-338.4129943847656 294.1839904785156,-306.27801513671875 293.8290100097656,-303.44000244140625 C293.8290100097656,-303.44000244140625 321.5849914550781,-305.18499755859375 330.322998046875,-303.5589904785156 C330.322998046875,-303.5589904785156 324.7131652832031,-235.13043212890625 324.7131652832031,-235.13043212890625z"></path></g></g><g transform="matrix(0.9975641369819641,-0.06975428760051727,0.06975428760051727,0.9975641369819641,838.1185302734375,622.1002807617188)" opacity="1" style="display: block;"><g opacity="1" transform="matrix(1,0,0,1,0,0)"><path fill="rgb(251,173,131)" fill-opacity="1" d=" M322.52398681640625,-275.0539855957031 C322.52398681640625,-270.302001953125 316.2099914550781,-266.0849914550781 312.3349914550781,-266.0849914550781 C308.4599914550781,-266.0849914550781 306.9909973144531,-270.302001953125 306.9909973144531,-275.0539855957031 C306.9909973144531,-279.80499267578125 310.13299560546875,-283.6570129394531 314.00799560546875,-283.6570129394531 C317.88299560546875,-283.6570129394531 322.52398681640625,-279.80499267578125 322.52398681640625,-275.0539855957031z"></path></g></g><g transform="matrix(0.9975641369819641,-0.06975428760051727,0.06975428760051727,0.9975641369819641,838.1185302734375,622.1002807617188)" opacity="1" style="display: block;"><g opacity="1" transform="matrix(1,0,0,1,0,0)"><path fill="rgb(255,255,255)" fill-opacity="1" d=" M305.6440124511719,-263.5799865722656 C305.6440124511719,-259.8169860839844 308.6940002441406,-256.7659912109375 312.4580078125,-256.7659912109375 C316.22100830078125,-256.7659912109375 319.2720031738281,-259.8169860839844 319.2720031738281,-263.5799865722656 C319.2720031738281,-267.3429870605469 316.22100830078125,-270.3949890136719 312.4580078125,-270.3949890136719 C308.6940002441406,-270.3949890136719 305.6440124511719,-267.3429870605469 305.6440124511719,-263.5799865722656z"></path></g></g><g transform="matrix(-0.8978077173233032,0.06277886033058167,0.06975428760051727,0.9975641369819641,1398.869140625,582.8900146484375)" opacity="1" style="display: block;"><g opacity="1" transform="matrix(1,0,0,1,0,0)"><path fill="rgb(26,34,73)" fill-opacity="1" d=" M298.20098876953125,-271.9110107421875 C292.2919921875,-271.9110107421875 287.4849853515625,-277.6419982910156 287.4849853515625,-284.68499755859375 C287.4849853515625,-284.68499755859375 287.4849853515625,-285.30999755859375 287.4849853515625,-285.30999755859375 C287.4849853515625,-285.30999755859375 288.1099853515625,-285.3580017089844 288.1099853515625,-285.3580017089844 C288.1099853515625,-285.3580017089844 308.9159851074219,-285.3580017089844 308.9159851074219,-285.3580017089844 C308.9159851074219,-285.3580017089844 308.9159851074219,-284.7330017089844 308.9159851074219,-284.7330017089844 C308.9150085449219,-277.63800048828125 304.1090087890625,-271.9110107421875 298.20098876953125,-271.9110107421875z M288.7489929199219,-284.1080017089844 C289.0150146484375,-277.99798583984375 293.15301513671875,-273.1610107421875 298.20098876953125,-273.1610107421875 C303.2619934082031,-273.1610107421875 307.4079895019531,-278.02099609375 307.656005859375,-284.1080017089844 C307.656005859375,-284.1080017089844 288.7489929199219,-284.1080017089844 288.7489929199219,-284.1080017089844z"></path></g></g><g transform="matrix(-0.5985385179519653,0.04185257479548454,0.06975428760051727,0.9975641369819641,1293.4764404296875,590.259521484375)" opacity="1" style="display: block;"><g opacity="1" transform="matrix(1,0,0,1,0,0)"><path fill="rgb(26,34,73)" fill-opacity="1" d=" M298.20098876953125,-271.9110107421875 C292.2919921875,-271.9110107421875 287.4849853515625,-277.6419982910156 287.4849853515625,-284.68499755859375 C287.4849853515625,-284.68499755859375 287.4849853515625,-285.30999755859375 287.4849853515625,-285.30999755859375 C287.4849853515625,-285.30999755859375 288.1099853515625,-285.3580017089844 288.1099853515625,-285.3580017089844 C288.1099853515625,-285.3580017089844 308.9159851074219,-285.3580017089844 308.9159851074219,-285.3580017089844 C308.9159851074219,-285.3580017089844 308.9159851074219,-284.7330017089844 308.9159851074219,-284.7330017089844 C308.9150085449219,-277.63800048828125 304.1090087890625,-271.9110107421875 298.20098876953125,-271.9110107421875z M288.7489929199219,-284.1080017089844 C289.0150146484375,-277.99798583984375 293.15301513671875,-273.1610107421875 298.20098876953125,-273.1610107421875 C303.2619934082031,-273.1610107421875 307.4079895019531,-278.02099609375 307.656005859375,-284.1080017089844 C307.656005859375,-284.1080017089844 288.7489929199219,-284.1080017089844 288.7489929199219,-284.1080017089844z"></path></g></g><g transform="matrix(0.9975641369819641,-0.06975428760051727,0.06975428760051727,0.9975641369819641,819.5836181640625,623.3963012695312)" opacity="1" style="display: block;"><g opacity="1" transform="matrix(1,0,0,1,0,0)"><path fill="rgb(26,34,73)" fill-opacity="1" d=" M347.93499755859375,-284.1080017089844 C347.93499755859375,-284.1080017089844 294.9849853515625,-284.1080017089844 294.9849853515625,-284.1080017089844 C294.9849853515625,-284.1080017089844 294.9849853515625,-285.3580017089844 294.9849853515625,-285.3580017089844 C294.9849853515625,-285.3580017089844 347.93499755859375,-285.3580017089844 347.93499755859375,-285.3580017089844 C347.93499755859375,-285.3580017089844 347.93499755859375,-284.1080017089844 347.93499755859375,-284.1080017089844z"></path></g></g></g></g><g transform="matrix(0.9996160268783569,-0.027708163484930992,0.027708163484930992,0.9996160268783569,801.4052734375,609.4476318359375)" opacity="1" style="display: block;"><g opacity="1" transform="matrix(1,0,0,1,0,0)"><path fill="rgb(249,194,0)" fill-opacity="1" d=" M327.260986328125,-225.39100646972656 C327.260986328125,-225.39100646972656 283.72198486328125,-211.20599365234375 283.72198486328125,-211.20599365234375 C283.72198486328125,-211.20599365234375 290.9800109863281,-57.152000427246094 290.9800109863281,-57.152000427246094 C291.17401123046875,-53.0369987487793 325.8320007324219,-44.207000732421875 343.82598876953125,-44.27899932861328 C361.1700134277344,-44.347999572753906 390.14300537109375,-49.755001068115234 392.69500732421875,-51.981998443603516 C394.25,-53.3390007019043 395.2330017089844,-55.220001220703125 395.2829895019531,-57.308998107910156 C395.2829895019531,-57.308998107910156 388.35400390625,-201.80799865722656 388.35400390625,-201.80799865722656 C387.8819885253906,-211.64700317382812 380.44500732421875,-219.74200439453125 370.6820068359375,-221.0449981689453 C370.6820068359375,-221.0449981689453 356.7489929199219,-222.9040069580078 356.7489929199219,-222.9040069580078 C356.7489929199219,-222.9040069580078 327.260986328125,-225.39100646972656 327.260986328125,-225.39100646972656z"></path></g></g><g transform="matrix(0.9996160268783569,-0.027708163484930992,0.027708163484930992,0.9996160268783569,801.4052734375,609.4476318359375)" opacity="1" style="display: block;"><g opacity="1" transform="matrix(1,0,0,1,0,0)"><path fill="rgb(237,182,7)" fill-opacity="1" d=" M301.97900390625,-172.125 C301.97900390625,-172.125 285.78900146484375,-174.281005859375 285.78900146484375,-174.281005859375 C285.78900146484375,-174.281005859375 291.0840148925781,-57.152000427246094 291.0840148925781,-57.152000427246094 C291.2120056152344,-54.43899917602539 306.3179931640625,-49.67900085449219 321.75299072265625,-46.76900100708008 C321.75299072265625,-46.76900100708008 301.97900390625,-172.125 301.97900390625,-172.125z"></path></g></g><g transform="matrix(1,0,0,1,0,0)" opacity="1" style="display: block;"><g opacity="1" transform="matrix(1,0,0,1,1011.28857421875,391.42462158203125)"><g opacity="1" transform="matrix(0.8123716115951538,-0.5831400752067566,-0.5831400752067566,-0.8123716115951538,47.44757080078125,-34.05902099609375)"></g><g opacity="1" transform="matrix(1,0,0,1,0,0)"><g class="09" opacity="1" transform="matrix(1,0,0,1,0,0)"></g></g><g opacity="1" transform="matrix(1,0,0,1,0,0)"><g opacity="1" transform="matrix(1,0,0,1,-200,-200)"></g></g><g opacity="1" transform="matrix(1,0,0,1,-135,0)"><g opacity="1" transform="matrix(1,0,0,1,0,0)"></g></g></g><g opacity="1" transform="matrix(1,0,0,1,0,0)"><g opacity="1" transform="matrix(1,0,0,1,1011.28857421875,391.42462158203125)"><path stroke-linecap="butt" stroke-linejoin="round" fill-opacity="0" stroke="rgb(249,194,0)" stroke-opacity="1" stroke-width="24" d=" M0,0 C0,0 29.45,75.5 29.45,75.5 C29.45,75.5 79.84,15.37 81.47,13.44"></path><g opacity="1" transform="matrix(0.8123716115951538,-0.5831400752067566,-0.5831400752067566,-0.8123716115951538,47.44757080078125,-34.05902099609375)"></g></g></g></g><g transform="matrix(1.1493786573410034,-0.037798721343278885,0.037798721343278885,1.1493786573410034,934.7285766601562,659.0248413085938)" opacity="1" style="display: block;"><g opacity="1" transform="matrix(1,0,0,1,0,0)"><path fill="rgb(251,173,131)" fill-opacity="1" d=" M79.93199920654297,-235.26100158691406 C79.93199920654297,-235.26100158691406 84.3740005493164,-241.0030059814453 84.04900360107422,-244.468994140625 C83.7239990234375,-247.93600463867188 81.51000213623047,-250.72799682617188 78.63200378417969,-250.86099243164062 C75.75499725341797,-250.99400329589844 72.56600189208984,-246.41900634765625 72.56600189208984,-246.41900634765625 C72.56600189208984,-246.41900634765625 79.93199920654297,-235.26100158691406 79.93199920654297,-235.26100158691406z"></path></g></g><g transform="matrix(1.0432394742965698,-0.48389193415641785,0.48389193415641785,1.0432394742965698,1052.95556640625,661.01171875)" opacity="1" style="display: block;"><g opacity="1" transform="matrix(1,0,0,1,0,0)"><path fill="rgb(96,214,230)" fill-opacity="1" d=" M20.25,-241.83399963378906 C20.25,-241.83399963378906 -0.7289999723434448,-245.87899780273438 -0.7289999723434448,-245.87899780273438 C-0.7289999723434448,-245.87899780273438 19.690000534057617,-254.82200622558594 19.690000534057617,-254.82200622558594 C19.690000534057617,-254.82200622558594 104.02799987792969,-258.46099853515625 104.02799987792969,-258.46099853515625 C104.02799987792969,-258.46099853515625 104.58899688720703,-245.4739990234375 104.58899688720703,-245.4739990234375 C104.58899688720703,-245.4739990234375 20.25,-241.83399963378906 20.25,-241.83399963378906z"></path></g></g><g transform="matrix(1.1493786573410034,-0.037798721343278885,0.037798721343278885,1.1493786573410034,934.7285766601562,659.0248413085938)" opacity="1" style="display: block;"><g opacity="1" transform="matrix(1,0,0,1,0,0)"><path fill="rgb(251,173,131)" fill-opacity="1" d=" M81.3030014038086,-232.3509979248047 C81.3030014038086,-232.3509979248047 76.68299865722656,-249.07400512695312 71.6449966430664,-256.71099853515625 C66.60700225830078,-264.3489990234375 55.06999969482422,-261.4230041503906 51.494998931884766,-260.12298583984375 C47.91999816894531,-258.822998046875 47.71200180053711,-256.072998046875 47.71200180053711,-256.072998046875 C47.71200180053711,-256.072998046875 55.88199996948242,-253.2989959716797 58.481998443603516,-247.61099243164062 C61.082000732421875,-241.92300415039062 61.24399948120117,-240.13600158691406 61.40700149536133,-238.34800720214844 C61.56999969482422,-236.55999755859375 69.80400085449219,-226.90199279785156 69.80400085449219,-226.90199279785156 C69.80400085449219,-226.90199279785156 81.3030014038086,-232.3509979248047 81.3030014038086,-232.3509979248047z"></path></g></g><g transform="matrix(0.9616319537162781,-0.27434274554252625,0.27434274554252625,0.9616319537162781,1091.7645263671875,406.667236328125)" opacity="1" style="display: block;"><path fill="rgb(249,194,0)" fill-opacity="1" d=" M-14,-15 C-14,-15 2.881999969482422,-20.45599937438965 11.8149995803833,-11.041999816894531 C22.459999084472656,-1.2990000247955322 19.19099998474121,14.633999824523926 19.19099998474121,14.633999824523926 C19.19099998474121,14.633999824523926 -58.400001525878906,53.159000396728516 -58.400001525878906,53.159000396728516 C-58.400001525878906,53.159000396728516 -73.62899780273438,47.082000732421875 -73.62899780273438,47.082000732421875 C-73.62899780273438,47.082000732421875 -70.75199890136719,34.104000091552734 -70.75199890136719,34.104000091552734 C-70.75199890136719,34.104000091552734 -14,-15 -14,-15z M0,-20.5 C11.313949584960938,-20.5 20.5,-11.313949584960938 20.5,0 C20.5,11.313949584960938 11.313949584960938,20.5 0,20.5 C-11.313949584960938,20.5 -20.5,11.313949584960938 -20.5,0 C-20.5,-11.313949584960938 -11.313949584960938,-20.5 0,-20.5z"></path></g></g></g></svg>
